<svg xmlns="http://www.w3.org/2000/svg">
<defs>
<font id="UTMGod'sWord" horiz-adv-x="1570" >
  <font-face 
    font-family="UTM God's Word"
    font-weight="400"
    font-stretch="normal"
    units-per-em="2048"
    panose-1="2 4 6 3 5 5 6 2 2 4"
    ascent="1638"
    descent="-410"
    x-height="997"
    cap-height="1423"
    bbox="-94 -512 4983 2265"
    underline-thickness="109"
    underline-position="-359"
    unicode-range="U+0020-2026"
  />
<missing-glyph horiz-adv-x="5082" 
d="M3379 2018h10q38 -10 38 -51q0 -11 -33 -55h-28q0 23 28 52l2 10q-5 12 -10 14h-9q-8 0 -10 -18h-31q7 48 43 48zM2036 1989l29 -30q0 -16 -41 -29h-19l-59 12l-11 -12l-29 25q12 28 43 28h12l42 -11h2q11 0 31 17zM471 1955h144v-59h-95v-74h90v-57h-90v-126l-5 -5h-49
v315zM1165 1955h43l6 -6v-75h30v-52h-30v-183l-6 -5h-50v188h-25v52h25v75zM1634 1955h43l4 -6v-91h2q23 23 55 23h2q59 0 84 -69l2 -38v-140h-52v113q0 78 -43 78h-7q-43 0 -43 -84v-107h-51v315zM2218 1955h49l5 -6v-216q11 -50 46 -50q44 7 44 58v208l5 6h50v-211
q0 -83 -67 -110q-14 -8 -35 -8q-48 0 -83 54q-14 24 -14 55v220zM2456 1955h159v-59h-56v-262h-53v262h-56v53zM2643 1955h71q8 -4 84 -246h2l81 246h73v-321h-54v237h-3l-74 -237h-44q-5 0 -58 178l-20 59h-2v-237h-56v321zM3792 1955h51v-321h-45l-5 5v11l3 1l-3 14
q-29 -39 -78 -39q-68 0 -101 89l-5 38v3q0 92 92 122l23 3q36 0 65 -31h3v105zM2074 1903h36l5 -5v-48h-46v-216h-48v23q-24 -31 -60 -31q-89 14 -89 95v153h51v-102q0 -78 26 -84l18 -5h6q26 0 40 35l3 26v130h53v24zM3505 1903v-53h-31v-216h-47v25h-2q-16 -33 -58 -33
q-69 0 -87 77l-3 28v143h53v-118q0 -49 19 -66l21 -7h9q42 0 42 67v124h28q3 0 3 27l3 2h50zM764 1881q69 0 104 -75q9 -17 12 -53q0 -86 -91 -124l-32 -3q-64 0 -102 71q-12 23 -12 51v10q0 92 102 123h19zM1019 1881h3q75 0 84 -98v-149h-52v116q0 75 -42 75h-5
q-44 0 -44 -75v-116h-53v240h46v-21q31 28 63 28zM1478 1881h7q73 0 106 -87h-60q-17 31 -43 31h-17q-54 -14 -54 -60l-2 -15q12 -67 61 -67h9q23 0 48 26h40l2 3h3l2 -3l2 3l3 -3l1 3l3 -6q-33 -80 -111 -80q-77 0 -111 92l-4 35v3q0 83 77 118q16 7 38 7zM3167 1881h2

<glyph glyph-name=".notdef" horiz-adv-x="5082" 
d="M3379 2018h10q38 -10 38 -51q0 -11 -33 -55h-28q0 23 28 52l2 10q-5 12 -10 14h-9q-8 0 -10 -18h-31q7 48 43 48zM2036 1989l29 -30q0 -16 -41 -29h-19l-59 12l-11 -12l-29 25q12 28 43 28h12l42 -11h2q11 0 31 17zM471 1955h144v-59h-95v-74h90v-57h-90v-126l-5 -5h-49
v315zM1165 1955h43l6 -6v-75h30v-52h-30v-183l-6 -5h-50v188h-25v52h25v75zM1634 1955h43l4 -6v-91h2q23 23 55 23h2q59 0 84 -69l2 -38v-140h-52v113q0 78 -43 78h-7q-43 0 -43 -84v-107h-51v315zM2218 1955h49l5 -6v-216q11 -50 46 -50q44 7 44 58v208l5 6h50v-211
q0 -83 -67 -110q-14 -8 -35 -8q-48 0 -83 54q-14 24 -14 55v220zM2456 1955h159v-59h-56v-262h-53v262h-56v53zM2643 1955h71q8 -4 84 -246h2l81 246h73v-321h-54v237h-3l-74 -237h-44q-5 0 -58 178l-20 59h-2v-237h-56v321zM3792 1955h51v-321h-45l-5 5v11l3 1l-3 14
q-29 -39 -78 -39q-68 0 -101 89l-5 38v3q0 92 92 122l23 3q36 0 65 -31h3v105zM2074 1903h36l5 -5v-48h-46v-216h-48v23q-24 -31 -60 -31q-89 14 -89 95v153h51v-102q0 -78 26 -84l18 -5h6q26 0 40 35l3 26v130h53v24zM3505 1903v-53h-31v-216h-47v25h-2q-16 -33 -58 -33
q-69 0 -87 77l-3 28v143h53v-118q0 -49 19 -66l21 -7h9q42 0 42 67v124h28q3 0 3 27l3 2h50zM764 1881q69 0 104 -75q9 -17 12 -53q0 -86 -91 -124l-32 -3q-64 0 -102 71q-12 23 -12 51v10q0 92 102 123h19zM1019 1881h3q75 0 84 -98v-149h-52v116q0 75 -42 75h-5
q-44 0 -44 -75v-116h-53v240h46v-21q31 28 63 28zM1478 1881h7q73 0 106 -87h-60q-17 31 -43 31h-17q-54 -14 -54 -60l-2 -15q12 -67 61 -67h9q23 0 48 26h40l2 3h3l2 -3l2 3l3 -3l1 3l3 -6q-33 -80 -111 -80q-77 0 -111 92l-4 35v3q0 83 77 118q16 7 38 7zM3167 1881h2
q49 0 70 -59v-13h-52q0 16 -16 16h-4q-14 0 -19 -13v-13q0 -9 68 -34q31 -18 31 -58q0 -57 -61 -78l-24 -3q-76 12 -76 81h53q0 -19 28 -24h4q19 0 24 23q0 21 -68 42q-35 27 -35 58q0 65 75 75zM4238 1881q56 0 78 -62q7 -17 7 -63v-122h-52v110q0 81 -41 81h-11
q-34 0 -40 -53v-138h-53v5h-2l2 2v233h48v-21q25 28 64 28zM4469 1881h5q41 0 70 -39v17l-3 3l3 12h47v-204q0 -94 -86 -129l-33 -3h-7q-70 0 -105 78h60q24 -21 45 -22h13q22 0 43 21q16 12 23 50h-3q-33 -39 -74 -39q-58 0 -97 68q-10 18 -14 62q0 86 88 122zM3883 1874
h54v-133q5 -58 40 -58h7q47 0 47 91v100h51v-240h-47l-3 10h3l-3 3v4l3 2v4h-4q0 -23 -58 -31h-3q-59 0 -85 74l-2 83v91zM695 1750q11 -67 64 -67h7q60 13 60 64v15q-14 63 -60 63h-5q-58 0 -66 -75zM3660 1753q13 -70 61 -70h6q58 0 66 73q0 48 -51 69h-23q-37 0 -56 -56z
M4410 1753q9 -70 66 -70h5q60 11 60 70q0 60 -60 72h-14q-57 -16 -57 -61v-11zM3961 1603h52v-56h-52v56zM1062 1390q44 -11 44 -47v-5q0 -16 -32 -58h-28q0 24 30 55v8q0 11 -6 14h-13q-9 -4 -9 -19h-29v6q0 31 33 43zM3377 1329q93 0 139 -97h-61q-37 41 -80 41
q-56 0 -88 -67q-10 -21 -10 -45q0 -77 81 -108l19 -1q36 0 75 39h62q-44 -96 -139 -96q-94 0 -142 110q-10 30 -10 60q0 95 90 149q30 15 64 15zM3695 1329q57 0 103 -46q46 -51 46 -113v-20q0 -86 -91 -141q-34 -14 -63 -14q-91 0 -140 99q-13 32 -13 59v17q0 96 99 147
q30 12 59 12zM2280 1327h2l47 -12h3q11 0 27 12l18 -36q-18 -18 -36 -18h-3l-54 10l-20 -8l-21 36q19 16 37 16zM722 1324h19q118 0 130 -26q25 -25 25 -60q-10 -56 -30 -56v-6q47 -22 47 -64v-18q0 -61 -69 -85l-55 -6h-67v321zM2571 1324h54v-212q5 -60 45 -60q30 0 44 39
l4 29v197l4 7h45l5 -7v-167q0 -114 -41 -129q-24 -26 -64 -26q-56 0 -92 75l-4 52v202zM2828 1324h60q4 0 123 -231h4v231h50l4 -7v-314h-58q-29 48 -126 232h-3v-232h-54v321zM3127 1324h55v-321h-55v321zM3891 1324h8q157 0 176 -39q23 -12 47 -74l4 -35v-11l4 -2
q0 -91 -84 -145q-35 -15 -100 -15h-55v321zM4176 1324h153v-59h-103v-74h101v-55h-101v-72l4 -5h99v-56h-157v314zM3593 1168v-9q0 -75 79 -106l20 -1q68 0 97 84l3 20v14q0 60 -61 92q-12 8 -39 11q-67 0 -97 -82zM776 1265v-65h9q54 0 54 27l4 14q-11 24 -30 24h-37z
M3944 1265v-201l2 -3v-2q106 0 124 75l2 14v28q0 33 -33 67q-25 22 -78 22h-17zM1050 1250h4q39 0 72 -39v32h49v-240h-49v32q-36 -40 -80 -40q-76 0 -102 96l-6 34q0 87 87 122zM1324 1250h4q74 0 84 -100v-147h-52v125q0 65 -42 65h-10q-35 0 -39 -59v-131h-53v240h47v-21
q29 28 61 28zM1556 1250h5q45 0 72 -39v32h47v-214q0 -93 -105 -123h-16q-75 0 -109 80h60q26 -25 44 -25h14q52 0 65 76q-34 -42 -77 -42q-61 0 -102 80l-7 43v16q0 76 86 113zM1927 1250h2q44 0 63 -36h2q31 36 69 36h4q57 0 79 -53q9 -25 9 -44v-150h-53v135q0 43 -23 53
l-12 2h-15q-32 0 -36 -63v-127h-53v133q0 57 -43 57h-8q-33 0 -36 -55v-135h-55v240h51v-21h2q5 24 53 28zM2301 1250q47 0 76 -41v34h47v-240h-47v32q-37 -40 -79 -40q-75 0 -103 90l-6 40q0 88 86 122zM993 1112q0 -48 61 -60h4q46 0 63 45l3 15v22q-12 59 -57 59h-15
q-41 0 -59 -55v-26zM1499 1122q0 -46 43 -66l19 -4h4q48 0 65 55v23q-12 63 -59 63h-12q-50 0 -60 -71zM2243 1125v-13q16 -60 58 -60h14q58 12 58 63v10q0 44 -36 64l-19 4h-10q-65 -7 -65 -68zM776 1144v-80q0 -5 8 -5q76 0 76 44q0 33 -47 41h-37zM2991 757l24 -28
l-51 -54q-19 12 -28 26zM1537 730l85 -52q0 -15 -21 -41l-88 52q19 40 24 41zM2873 698h39l55 -59h-54l-21 25l-23 -25h-55q55 59 59 59zM3451 698h40l57 -59h-55l-24 25h-1q0 -4 -19 -25h-55zM627 689h52q9 -3 48 -133l34 -107q9 7 34 98l49 142h54v-2l-113 -318h-44z
M1169 689h51v-52h-51v52zM1365 689h47l5 -4v-316h-52v320zM2337 689h45l3 -4v-76h32v-51h-32v-189h-53v189h-26v51h26v76zM2445 689h53v-95h2q23 23 54 23h3q57 0 82 -69l3 -38v-141h-53v113q0 79 -39 79h-10q-42 0 -42 -85v-107h-53v320zM2686 689h53v-52h-53v52zM3053 689
h44l7 -4v-76h29v-51h-29v-189h-55v189h-27v51h27v76zM3260 689h53v-320h-53v320zM3990 689h52v-320h-52v320zM4352 689h51v-52h-51v52zM1568 617h5q84 0 110 -100l3 -23v-10q0 -81 -85 -117l-36 -5q-76 0 -111 94l-4 32q0 94 93 127zM1826 617h4q53 0 78 -59q8 -24 8 -80
v-109h-55v143q-7 49 -37 49h-10q-38 0 -42 -55v-137h-55v240h49v-20q27 28 60 28zM2063 617h4q46 0 63 -39h4v31h49v-201q0 -100 -89 -132l-29 -3h-5q-74 0 -107 79h52l38 -20l15 -3h14q50 0 62 71q-34 -38 -74 -38q-63 0 -99 74q-12 22 -12 58q0 83 87 121zM2890 617h2
q82 0 112 -102l2 -24l-2 -26h-174q16 -44 45 -44l15 -3q29 0 50 21h56v-3q-34 -74 -108 -74q-78 0 -113 94l-1 28v8q0 47 33 86q35 39 83 39zM3457 617h5q42 0 71 -39h2v31h47v-240h-47v31h-2q-35 -38 -78 -38q-71 0 -101 87l-5 35v13q0 84 84 118zM3742 617h7
q89 0 108 -125l-2 -1v-15q0 -64 -66 -104q-21 -10 -47 -10q-34 0 -65 31v-96l-5 -5h-50v317h50v-28q31 36 70 36zM4185 617q45 0 76 -39v31h50v-240h-50v31q-35 -38 -78 -38q-92 0 -108 129q0 82 73 118q15 8 37 8zM930 609h49v-133q4 -58 43 -58h5q45 0 45 85v106h52v-240
h-48v24h-4q0 -23 -57 -31h-3q-56 0 -82 66q-4 35 -4 97v79zM1169 609h51v-240h-51v240zM2686 609h53v-240h-53v240zM4352 609h51v-240h-51v240zM1504 497v-15q13 -64 59 -64h5q59 0 66 74q-13 69 -59 69h-12q-59 -15 -59 -64zM2003 482q16 -64 60 -64h11q48 0 60 73v1
q-14 69 -60 69h-14q-39 0 -57 -55v-24zM2828 515h123v2q-16 44 -59 44h-7q-36 0 -57 -46zM3401 484q13 -66 61 -66h6q52 0 65 60v13q-10 70 -57 70h-17q-55 -13 -55 -62zM3672 488q12 -70 62 -70h3q51 0 65 58v21q0 42 -49 64h-22q-48 0 -59 -70v-3zM4130 482q9 -64 66 -64
q43 0 61 47l2 13v16q0 54 -53 67h-18q-42 0 -58 -58v-21zM3445 335h51v-52h-51v52zM4172 335h51v-52h-51v52zM2755 151h5q35 0 43 -50v-1q0 -15 -24 -39l-10 -17h-28q0 24 28 54l3 2v1q-3 19 -9 19h-11q-7 0 -8 -19h-31q7 50 42 50zM1559 134l52 -59l-26 -18l-52 51zM354 98
h5q75 -47 86 -58l-21 -36q-89 47 -89 57zM3519 98l87 -56l-18 -38q-11 0 -92 53q15 35 23 41zM4617 95l19 -41l-92 -50l-21 38l94 56v-3zM1214 73h52v-19l4 -5h14v-35h-14l-4 -5v-272h-47v31q-34 -40 -82 -40q-72 0 -103 103l-3 25q0 100 102 128h15q32 0 66 -33v58l-6 5
h-43v35h49v24zM1492 65h41l56 -60h-53l-24 27l-23 -27h-53zM2663 65h33q12 0 64 -60h-55l-23 27q-19 -21 -19 -27h-59v4zM49 57h161v-58h-56v-262h-50l-4 4v240l2 3v2l-2 2l2 2l-2 2l2 3l-2 4h-55v52zM705 57h47v-71l2 -2l-2 -3v-3l2 -1l-2 -4v-3l2 -2v-2l-2 -3l2 -2h3
q17 23 52 23h2q54 0 78 -57q7 -17 7 -41v-149h-52v124q0 66 -40 66h-9q-43 0 -43 -84v-106h-53v314zM1308 57h47l5 -6v-47h-52v53zM2003 57h53v-193l70 113h63l-79 -116l91 -122v-2h-71q-10 21 -74 112v-112h-53v320zM2289 57v-96q25 23 54 23q58 0 81 -55q10 -19 10 -75
v-117h-54v129q0 61 -42 61h-11q-31 0 -38 -53v-137h-52v307l-1 2v3l1 2l-1 3l1 3h52zM2479 57h51v-53h-51v53zM3174 57h52v-106q27 33 68 33h3q76 0 107 -91l4 -37q0 -74 -64 -117q-31 -11 -50 -11q-41 0 -72 40v-31h-48v320zM4311 57h52v-96h2q23 23 55 23h3q60 0 82 -73
l2 -39v-135h-52v108q0 80 -32 80l-10 2h-13q-37 0 -37 -78v-112h-52v320zM331 -16h3v-57h-5q-42 0 -42 -55v-135h-54v240h48v-21q19 28 50 28zM568 -16q72 0 87 -85v-162h-51v132q-7 58 -41 58h-7q-45 0 -45 -82v-108h-52v240h50v-21q25 28 59 28zM1516 -16q73 0 106 -91
l5 -39q-2 -23 -7 -23h-170q17 -47 62 -47q25 0 49 21h57q-33 -77 -108 -77q-83 0 -115 103v35q0 80 90 115zM2679 -16h5q78 0 108 -95l3 -25v-21l-3 -12h-171q18 -47 53 -47h12q21 0 42 21h60q-35 -77 -106 -77q-84 0 -116 99l-2 29q0 91 91 125zM2940 -16h3q54 0 79 -59
q7 -24 7 -80v-108h-55v135q0 47 -34 55h-12q-38 0 -43 -55v-135h-55v240h51v-21q25 28 59 28zM3537 -16h6q40 0 71 -39h2v32h47v-240h-47v31h-2q-35 -40 -79 -40q-71 0 -102 88l-4 36v12q0 80 78 114q11 6 30 6zM3813 -16h3q63 0 83 -77l3 -82v-88h-54v135q0 47 -38 55h-10
q-38 0 -42 -50v-140h-55v240h50v-21q26 28 60 28zM4167 -16h1q75 0 106 -91l3 -39q0 -86 -84 -123l-26 -3q-41 0 -68 33v-104h-53v320h48v-29q30 36 73 36zM4753 -16h6q33 0 63 -36q27 36 69 36h7q56 0 80 -64l5 -51v-132h-52v119q0 71 -40 71h-7q-35 0 -41 -48v-138l-5 -4
h-49v137q0 41 -30 53h-18q-40 0 -40 -75v-115h-52v240h48v-21q22 28 56 28zM362 -23h49l5 -7v-229l-5 -4h-49v240zM1308 -23h52v-240h-52v240zM1662 -23h53v-134q4 -59 43 -59h4q44 0 44 80v113h53v-240h-47v23h-6q-11 -32 -59 -32q-52 0 -80 62q-5 11 -5 33v154zM2479 -23
h51v-240h-51v240zM4553 -23h51v-240h-51v240zM1086 -144q0 -52 51 -72h12q54 0 67 65v10q0 51 -55 68h-16q-39 0 -59 -55v-16zM1450 -119h123q-18 46 -54 46h-7q-43 0 -62 -43v-3zM2621 -119h123q-21 46 -55 46h-7q-47 0 -61 -46zM3223 -134v-10q10 -72 61 -72h5q65 9 65 70
v5q0 44 -39 63l-18 5h-14q-60 -13 -60 -61zM3480 -148q15 -68 63 -68h11q42 0 60 59v13q-8 71 -57 71h-17q-47 0 -60 -71v-4zM4096 -134v-21q0 -46 60 -61h8q51 0 62 75q-13 68 -59 68h-14q-57 -17 -57 -61z" />
    <glyph glyph-name=".null" horiz-adv-x="0" 
 />
    <glyph glyph-name="nonmarkingreturn" horiz-adv-x="576" 
 />
    <glyph glyph-name="space" unicode=" " horiz-adv-x="534" 
 />
    <glyph glyph-name="exclam" unicode="!" horiz-adv-x="872" 
d="M559 1448l-50 -1090h-153l-41 904q-4 90 -19.5 124.5t-60.5 61.5h324zM571 102q0 -57 -39 -96t-94 -39q-58 0 -96.5 39t-38.5 96q0 56 39.5 95t97.5 39q53 0 92 -40t39 -94z" />
    <glyph glyph-name="quotedbl" unicode="&#x22;" horiz-adv-x="1310" 
d="M929 1423l-35 -571h-147l-33 571h215zM593 1423l-33 -571h-147l-35 571h215z" />
    <glyph glyph-name="numbersign" unicode="#" horiz-adv-x="1310" 
d="M1283 999l-18 -125h-307l-49 -335h305l-21 -125h-303l-65 -414h-135l67 414h-299l-63 -414h-133l63 414h-299l20 125h297l54 335h-299l18 125h299l68 422h133l-66 -422h295l68 422h131l-64 -422h303zM827 874h-297l-51 -335h297z" />
    <glyph glyph-name="dollar" unicode="$" horiz-adv-x="1138" 
d="M1060 410q0 -160 -110.5 -263.5t-315.5 -138.5v-192h-117v190q-217 0 -385 27v254q172 -135 385 -137v536q-163 70 -239 119q-164 108 -164 270q0 142 108.5 234t294.5 110v172h117v-172q144 -6 275 -49v-227q-107 106 -275 121v-398q12 -8 51 -26q131 -64 169 -87.5
t87 -70.5q119 -115 119 -272zM517 909v355q-77 -9 -120 -33q-80 -45 -80 -131q0 -56 43 -96.5t157 -94.5zM855 395q0 92 -84 156q-47 35 -137 80v-467q221 65 221 231z" />
    <glyph glyph-name="percent" unicode="%" horiz-adv-x="1511" 
d="M685 1106q0 -141 -89 -238.5t-218 -97.5q-133 0 -220 93t-87 237q0 147 89 242.5t224 95.5q127 0 214 -96.5t87 -235.5zM1165 1423l-699 -1423h-129l701 1423h127zM1441 319q0 -141 -89 -238t-218 -97q-133 0 -220 93t-87 236q0 146 89 242t224 96q127 0 214 -96t87 -236
zM520 1104q0 221 -144 221q-139 0 -139 -223q0 -215 141 -215q142 0 142 217zM1275 317q0 222 -143 222q-139 0 -139 -224q0 -215 141 -215t141 217z" />
    <glyph glyph-name="ampersand" unicode="&#x26;" horiz-adv-x="1744" 
d="M1801 0q-157 -6 -241 -6q-121 0 -216.5 48t-240.5 181q-90 -137 -193.5 -194.5t-259.5 -57.5q-217 0 -352 115t-135 301q0 127 65.5 230.5t231.5 234.5q-98 102 -136 168.5t-38 140.5q0 121 99.5 206t242.5 85q135 0 223 -82t88 -209q0 -88 -38 -152.5t-152 -168.5
q393 -387 605 -556t447 -284zM765 1184q0 59 -43 97t-108 38q-62 0 -102 -35t-40 -90q0 -90 154 -227q139 106 139 217zM1015 301q-270 240 -426 418q-197 -144 -197 -320q0 -123 83 -200.5t214 -77.5q193 0 326 180z" />
    <glyph glyph-name="quotesingle" unicode="'" horiz-adv-x="872" 
d="M544 1423l-33 -571h-147l-35 571h215z" />
    <glyph glyph-name="parenleft" unicode="(" horiz-adv-x="659" 
d="M579 -326h-166q-293 441 -293 879q0 311 135 596q45 96 158 274h166q-271 -422 -271 -876q0 -500 271 -873z" />
    <glyph glyph-name="parenright" unicode=")" horiz-adv-x="665" 
d="M544 553q0 -438 -295 -879h-172q272 373 272 873q0 457 -272 876h172q113 -174 160 -274q135 -285 135 -596z" />
    <glyph glyph-name="asterisk" unicode="*" horiz-adv-x="1310" 
d="M1019 1098q-22 2 -47 2q-80 0 -176 -31l-51 -16l35 -39q71 -80 90 -99q34 -30 82 -49l-172 -125q-19 107 -93 205l-32 43l-31 -43q-72 -100 -90 -205l-168 125q59 21 88 41q37 29 90 103l31 43l-58 18q-69 23 -153 23q-29 0 -76 -11l70 201q69 -72 194 -113l51 -16v55
q0 115 -59 213h215q-51 -82 -51 -213v-55l51 16q92 29 129 56q29 18 64 65z" />
    <glyph glyph-name="plus" unicode="+" horiz-adv-x="1310" 
d="M1128 645h-399v-407h-148v407h-399v148h399v409h148v-409h399v-148z" />
    <glyph glyph-name="comma" unicode="," horiz-adv-x="526" 
d="M395 100q0 -145 -146 -286q-38 -37 -65 -37q-16 0 -82 6q160 145 160 201q0 14 -45 26q-86 23 -86 115q0 51 37.5 88t91.5 37q59 0 97 -42t38 -108z" />
    <glyph glyph-name="hyphen" unicode="-" horiz-adv-x="804" 
d="M735 651l-117 -155q-29 -39 -92 -39h-258q-119 0 -197 -27l123 154q29 37 94 37h229q140 0 218 30z" />
    <glyph glyph-name="hyphen" unicode="&#x2010;" horiz-adv-x="804" 
d="M735 651l-117 -155q-29 -39 -92 -39h-258q-119 0 -197 -27l123 154q29 37 94 37h229q140 0 218 30z" />
    <glyph glyph-name="period" unicode="." horiz-adv-x="526" 
d="M397 117q0 -58 -39 -96.5t-94 -38.5q-57 0 -96 38.5t-39 96.5q0 55 40 94t97 39q53 0 92 -40t39 -93z" />
    <glyph glyph-name="slash" unicode="/" horiz-adv-x="880" 
d="M804 1423l-676 -1720h-162l682 1720h156z" />
    <glyph glyph-name="zero" unicode="0" horiz-adv-x="1284" 
d="M1220 506q0 -223 -171 -379t-419 -156q-241 0 -404 149.5t-163 373.5q0 229 170 380.5t430 151.5q236 0 396.5 -150.5t160.5 -369.5zM1007 481q0 178 -105.5 290t-273.5 112q-153 0 -252.5 -102.5t-99.5 -260.5q0 -172 107.5 -288.5t267.5 -116.5t258 101t98 265z" />
    <glyph glyph-name="one" unicode="1" horiz-adv-x="581" 
d="M517 0h-442q90 55 113 119q16 43 16 162v536h-176q287 125 383 258v-794q0 -146 37 -207q26 -45 69 -74z" />
    <glyph glyph-name="two" unicode="2" horiz-adv-x="962" 
d="M834 0h-862q37 35 375 399q151 166 189 221.5t38 112.5q0 72 -51 115t-135 43q-135 0 -287 -86l125 186q98 49 227 49q150 0 244 -74.5t94 -191.5t-129 -270q-63 -76 -284 -297q-13 -14 -41 -41q110 -21 235 -21q152 0 262 72v-217z" />
    <glyph glyph-name="three" unicode="3" horiz-adv-x="995" 
d="M891 55q0 -278 -293 -424q-229 -114 -553 -114q-55 0 -100 2l78 129q301 0 476 104.5t175 284.5q0 127 -99.5 207t-256.5 80q-56 0 -119 -9v144q22 -2 49 -2q164 0 266.5 67.5t102.5 173.5q0 84 -63.5 134.5t-172.5 50.5q-164 0 -334 -80l109 176q121 47 254 47
q180 0 292.5 -85t112.5 -220q0 -115 -84 -205q-61 -65 -190 -104q164 -33 246 -109q104 -96 104 -248z" />
    <glyph glyph-name="four" unicode="4" horiz-adv-x="1236" 
d="M1237 229l-129 -231h-226v-104q0 -121 -36.5 -197t-155.5 -207v508h-676l582 1028h286v-881q207 0 355 84zM698 926l-424 -760q123 -25 342 -25h78z" />
    <glyph glyph-name="five" unicode="5" horiz-adv-x="1028" 
d="M956 68q0 -148 -89 -273t-245 -194q-213 -95 -559 -109l86 146q143 0 248 28q344 96 344 373q0 141 -89 223t-241 82q-115 0 -272 -55v708h710v-241q-47 59 -100 80q-45 16 -133 16q-147 0 -277 -18v-365q101 27 170 27q191 0 319 -123t128 -305z" />
    <glyph glyph-name="six" unicode="6" horiz-adv-x="1251" 
d="M1193 487q0 -217 -161.5 -366.5t-397.5 -149.5q-241 0 -403 171t-162 427q0 219 118 407.5t333 315.5q208 121 503 176l-84 -133q-292 -71 -469.5 -277t-177.5 -476q0 -201 106.5 -334t266.5 -133q139 0 227 93t88 241q0 155 -89 253.5t-230 98.5q-139 0 -256 -68l84 131
q115 86 254 86q192 0 321 -133t129 -330z" />
    <glyph glyph-name="seven" unicode="7" horiz-adv-x="1103" 
d="M1061 997l-453 -977q-18 -36 -51 -110q-133 -326 -430 -420l635 1346q-166 14 -320 14q-235 0 -399 -102l139 249h879z" />
    <glyph glyph-name="eight" unicode="8" horiz-adv-x="1275" 
d="M1210 379q0 -180 -164 -294t-424 -114q-250 0 -404.5 106.5t-154.5 280.5q0 150 123 242q72 53 207 119q-267 98 -267 319q0 156 142.5 260.5t355.5 104.5q180 0 322 -82q172 -100 172 -272q0 -211 -256 -308q141 -47 223 -108q125 -92 125 -254zM917 1034
q0 109 -83 174.5t-222 65.5q-123 0 -202 -56.5t-79 -142.5q0 -98 131 -174q39 -22 209 -92l45 -18q201 86 201 243zM991 340q0 90 -102.5 159.5t-368.5 159.5q-103 -49 -146 -77q-108 -74 -108 -201q0 -121 103.5 -195.5t268.5 -74.5q156 0 254.5 63.5t98.5 165.5z" />
    <glyph glyph-name="nine" unicode="9" horiz-adv-x="1245" 
d="M1175 436q0 -217 -117.5 -411.5t-314.5 -305.5q-233 -129 -536 -186l92 129q256 66 446 258q209 211 209 500q0 205 -103.5 336t-267.5 131q-141 0 -228 -93.5t-87 -244.5q0 -162 86 -258t231 -96q115 0 265 77l-125 -174q-111 -47 -217 -47q-189 0 -320 135.5
t-131 331.5q0 213 161 360.5t392 147.5q244 0 404.5 -168t160.5 -422z" />
    <glyph glyph-name="colon" unicode=":" horiz-adv-x="526" 
d="M397 829q0 -57 -39 -96t-94 -39q-57 0 -96 39t-39 96q0 56 40 95t97 39q53 0 92 -40t39 -94zM397 117q0 -58 -39 -96.5t-94 -38.5q-57 0 -96 38.5t-39 96.5q0 55 40 94t97 39q53 0 92 -40t39 -93z" />
    <glyph glyph-name="semicolon" unicode=";" horiz-adv-x="526" 
d="M389 829q0 -57 -39 -96t-96 -39q-56 0 -95 39t-39 96q0 56 40 95t98 39q53 0 92 -40t39 -94zM395 100q0 -145 -146 -286q-38 -37 -65 -37q-16 0 -82 6q160 145 160 201q0 14 -45 26q-86 23 -86 115q0 51 37.5 88t91.5 37q59 0 97 -42t38 -108z" />
    <glyph glyph-name="less" unicode="&#x3c;" horiz-adv-x="1067" 
d="M997 193l-926 446v166l926 446v-194l-717 -336l717 -336v-192z" />
    <glyph glyph-name="equal" unicode="=" horiz-adv-x="1310" 
d="M1128 793h-946v147h946v-147zM1128 483h-946v148h946v-148z" />
    <glyph glyph-name="greater" unicode="&#x3e;" horiz-adv-x="1067" 
d="M997 637l-926 -447v195l717 336l-717 336v194l926 -446v-168z" />
    <glyph glyph-name="question" unicode="?" horiz-adv-x="1089" 
d="M962 1069q0 -104 -49 -188t-176 -199q-145 -129 -172 -166t-27 -100q0 -33 11 -76l-168 -18q-11 49 -11 84q0 88 39 154.5t142 154.5q194 168 194 311q0 119 -90 200t-221 81q-105 0 -291 -95l123 201q108 45 217 45q211 0 345 -109.5t134 -279.5zM614 100q0 -55 -40 -95
t-95 -40t-94 39t-39 96q0 56 40 94.5t97 38.5q53 0 92 -39.5t39 -93.5z" />
    <glyph glyph-name="at" unicode="@" horiz-adv-x="1820" 
d="M1621 909q0 -229 -136 -406t-310 -177q-70 0 -117 45t-47 110q0 54 14 121l68 316q-53 51 -158 51q-102 0 -168.5 -80t-66.5 -201q0 -190 184 -190q45 0 100 16l-88 -137q-55 -15 -86 -15q-121 0 -197.5 86.5t-76.5 221.5q0 108 48 208.5t130 157.5q92 66 227 66
q66 0 135 -17q80 -18 103 -18q35 0 76 20l28 15l-102 -479q-12 -58 -12 -95q0 -59 59 -59q96 0 171 132t75 302q0 197 -130 309.5t-358 112.5q-284 0 -460.5 -175t-176.5 -458q0 -262 159 -418.5t423 -156.5q246 0 459 143l-31 -141q-201 -133 -510 -133
q-280 0 -463.5 192.5t-183.5 489.5q0 346 222 565t577 219q293 0 456.5 -143.5t163.5 -399.5z" />
    <glyph glyph-name="A" unicode="A" 
d="M1566 0h-448q78 47 78 86q0 25 -37 121l-127 330h-547l-123 -330q-25 -66 -25 -111q0 -55 78 -96h-397q74 47 108.5 98.5t92.5 192.5l381 950q24 62 24 98q0 52 -65 84h344l454 -1132q52 -129 95 -188.5t114 -102.5zM976 676l-219 565l-221 -565h440z" />
    <glyph glyph-name="B" unicode="B" horiz-adv-x="1296" 
d="M1206 449q0 -121 -74 -226.5t-201 -164t-366 -58.5h-459q70 37 88 121q8 37 8 155v871q0 119 -8 156q-18 83 -88 120h307q-2 0 37 2h76h67q203 0 299 -51q177 -92 177 -266q0 -147 -125 -229q-35 -23 -93 -50q99 -26 162 -61q193 -109 193 -319zM837 1075
q0 96 -75.5 154.5t-198.5 58.5q-56 0 -150 -14v-424q39 -4 82 -4q154 0 248 62.5t94 166.5zM964 420q0 139 -98 217t-289 78q-82 0 -164 -10v-533q99 -20 191 -20q172 0 266 70.5t94 197.5z" />
    <glyph glyph-name="C" unicode="C" horiz-adv-x="1372" 
d="M1345 281l-109 -252q-158 -64 -336 -64q-370 0 -594.5 204t-224.5 540q0 323 217 536t549 213q162 0 389 -55v-248q-207 119 -393 119q-230 0 -374 -147.5t-144 -381.5q0 -253 158.5 -428.5t388.5 -175.5q206 0 473 140z" />
    <glyph glyph-name="D" unicode="D" horiz-adv-x="1521" 
d="M1439 727q0 -213 -112.5 -392t-300.5 -263q-160 -72 -572 -72h-348q66 59 78 96q18 58 18 191v860q0 119 -8 156q-18 83 -88 120h217q82 0 144.5 2t168.5 2q347 0 562 -178q241 -200 241 -522zM1202 705q0 251 -150.5 414t-431.5 163q-88 0 -201 -25v-1081
q76 -14 160 -14q272 0 414 104q209 156 209 439z" />
    <glyph glyph-name="E" unicode="E" horiz-adv-x="1126" 
d="M1107 283l-100 -283h-901q70 37 88 121q8 39 8 158v868q0 117 -8 156q-18 83 -88 120h719q47 0 82 13v-252q-58 55 -121 71q-47 15 -143 15q-136 0 -224 -15v-403h289q43 0 74 14v-229q-45 59 -170 59h-193v-514q138 -22 267 -22q258 0 421 123z" />
    <glyph glyph-name="F" unicode="F" horiz-adv-x="960" 
d="M907 1186q-58 53 -119 71q-49 13 -143 13q-133 0 -226 -15v-403h289q43 0 74 14v-229q-43 59 -170 59h-193v-420q0 -118 9 -155q18 -84 88 -121h-410q70 37 88 121q8 37 8 155v871q0 119 -8 156q-18 83 -88 120h719q47 0 82 13v-250z" />
    <glyph glyph-name="G" unicode="G" horiz-adv-x="1624" 
d="M1482 29q-25 -2 -76 -13q-250 -51 -442 -51q-348 0 -572 152q-311 211 -311 585q0 379 332 603q229 153 561 153q158 0 342 -37v-247q-141 129 -383 129q-266 0 -436 -161t-170 -411q0 -254 184 -432t444 -178q185 0 297 41v287q0 118 -8 155q-18 84 -88 121h326
q-12 -39 -12 -127v-459q0 -73 12 -110z" />
    <glyph glyph-name="H" unicode="H" horiz-adv-x="1619" 
d="M1511 0h-410q70 39 88 121q9 39 9 155v410h-779v-410q0 -118 9 -155q18 -84 88 -121h-410q70 37 88 121q8 37 8 155v871q0 119 -8 156q-18 83 -88 120h410q-70 -37 -88 -120q-9 -37 -9 -156v-295h779v295q0 117 -9 156q-18 81 -88 120h410q-70 -39 -88 -120
q-8 -39 -8 -156v-871q0 -116 8 -155q18 -82 88 -121z" />
    <glyph glyph-name="I" unicode="I" horiz-adv-x="622" 
d="M516 0h-410q70 37 88 121q8 37 8 155v871q0 119 -8 156q-18 83 -88 120h410q-70 -37 -88 -120q-9 -37 -9 -156v-871q0 -118 9 -155q18 -84 88 -121z" />
    <glyph glyph-name="J" unicode="J" horiz-adv-x="593" 
d="M503 1423q-70 -37 -89 -120q-8 -37 -8 -156v-1147q0 -195 -12 -236q-33 -110 -213 -196q-121 -57 -256 -66q139 86 205 189q59 92 59 309v1147q0 117 -8 156q-18 81 -88 120h410z" />
    <glyph glyph-name="K" unicode="K" horiz-adv-x="1345" 
d="M1384 0q-92 -10 -207 -10q-127 0 -201.5 65.5t-283.5 360.5q-60 88 -185 260q-18 20 -51 65l299 398q107 141 107 192t-66 92h389l-497 -639q245 -331 305 -409q69 -90 133 -164q74 -84 258 -211zM516 0h-410q70 37 88 121q8 37 8 155v871q0 119 -8 156q-18 83 -88 120
h410q-70 -37 -88 -120q-9 -37 -9 -156v-871q0 -118 9 -155q18 -84 88 -121z" />
    <glyph glyph-name="L" unicode="L" horiz-adv-x="1130" 
d="M1103 287l-114 -287h-883q70 37 88 121q8 37 8 155v871q0 119 -8 156q-18 83 -88 120h410q-70 -37 -88 -120q-9 -37 -9 -156v-971q152 -22 291 -22q117 0 202 28.5t191 104.5z" />
    <glyph glyph-name="M" unicode="M" horiz-adv-x="2054" 
d="M1999 0h-418q90 39 90 164q0 39 -10 121l-115 925l-485 -1239q-78 66 -110 108t-69 130l-423 1001l-127 -954q-11 -78 -11 -113q0 -82 86 -143h-354q90 86 117 285l125 909q12 90 12 111q0 65 -76 118h379q0 -28 21 -75l415 -977l350 897q41 104 41 155h375
q-67 -32 -67 -135q0 -33 6 -78l133 -954q16 -115 35.5 -162t79.5 -94z" />
    <glyph glyph-name="N" unicode="N" horiz-adv-x="1613" 
d="M1532 1423q-70 -45 -92.5 -95t-22.5 -159v-1239q-158 52 -297 228l-758 960v-864q0 -107 23.5 -159t89.5 -95h-385q70 45 92.5 95t22.5 159v915q0 107 -23.5 159t-89.5 95h315q5 -12 52 -80l800 -1019v845q0 107 -23.5 158t-90.5 96h387z" />
    <glyph glyph-name="O" unicode="O" horiz-adv-x="1753" 
d="M1668 721q0 -318 -232.5 -537t-566.5 -219q-329 0 -558.5 215t-229.5 525q0 321 234.5 538t582.5 217q332 0 551 -213q102 -98 160.5 -239.5t58.5 -286.5zM1422 688q0 250 -147 428q-156 189 -408 189q-237 0 -389.5 -157t-152.5 -407q0 -266 174 -458q145 -162 379 -162
q243 0 393.5 156.5t150.5 410.5z" />
    <glyph glyph-name="P" unicode="P" horiz-adv-x="1181" 
d="M1126 1047q0 -168 -140.5 -287t-336.5 -119q-82 0 -156 29q182 22 279 104q112 96 112 232q0 124 -84 196t-231 72q-70 0 -150 -17v-1003q0 -107 23.5 -160t89.5 -94h-426q70 37 88 121q8 37 8 155v871q0 119 -8 156q-18 83 -88 120h207q18 0 80 2h162h67q174 0 285 -53
q100 -49 159.5 -137t59.5 -188z" />
    <glyph glyph-name="Q" unicode="Q" horiz-adv-x="1751" 
d="M1992 -279q-125 -112 -273 -112q-223 0 -692 377q-110 -21 -180 -21q-324 0 -545 215t-221 529q0 319 232.5 534t576.5 215q332 0 555 -209t223 -520q0 -145 -59.5 -287.5t-159.5 -240.5q-59 -60 -166 -117q387 -363 684 -363h25zM1422 686q0 250 -153.5 433.5
t-401.5 183.5q-219 0 -372 -140q-170 -153 -170 -413q0 -250 147.5 -440.5t409.5 -190.5q237 0 388.5 158.5t151.5 408.5z" />
    <glyph glyph-name="R" unicode="R" horiz-adv-x="1296" 
d="M1384 0q-160 -12 -199 -12q-92 0 -158.5 43t-175.5 172q-206 246 -378 538q360 62 360 310q0 106 -72.5 172.5t-189.5 66.5q-64 0 -152 -16v-998q0 -118 9 -155q18 -84 88 -121h-410q70 37 88 121q8 37 8 155v871q0 119 -8 156q-18 83 -88 120h313q33 0 96.5 2t96.5 2
q207 0 319 -84q144 -106 144 -276q0 -125 -98.5 -228.5t-252.5 -142.5q242 -325 386.5 -476.5t273.5 -219.5z" />
    <glyph glyph-name="S" unicode="S" horiz-adv-x="1187" 
d="M1107 416q0 -166 -133 -293q-166 -160 -453 -160q-194 0 -380 68l-66 268q215 -172 473 -172q137 0 230.5 63.5t93.5 157.5q0 90 -72 154q-61 53 -275 150.5t-298 172.5q-113 103 -113 250q0 174 146.5 278.5t392.5 104.5q161 0 329 -47v-246q-145 142 -344 142
q-127 0 -205.5 -56.5t-78.5 -146.5q0 -80 63.5 -135.5t255.5 -143.5q229 -104 317 -174q117 -92 117 -235z" />
    <glyph glyph-name="T" unicode="T" horiz-adv-x="1101" 
d="M1116 1438l-69 -258q-29 55 -86 71q-35 11 -117 11q-16 0 -54 -3.5t-97 -3.5h-35v-1001q0 -107 22.5 -157t91.5 -97h-428q70 37 88 121q9 39 9 155v979q-64 7 -174 7q-99 0 -148 -13q-63 -16 -133 -69l80 258q43 -15 110 -15h814q26 0 54.5 2l28.5 2q11 3 43 11z" />
    <glyph glyph-name="U" unicode="U" horiz-adv-x="1540" 
d="M1433 0h-305v150q-154 -185 -428 -185q-170 0 -297 76q-141 84 -186 235q-21 74 -21 242v629q0 119 -8 156q-18 83 -88 120h410q-70 -39 -88 -120q-9 -39 -9 -156v-629q0 -186 76 -276q100 -119 275 -119q206 0 315 153q41 62 41 168v703q0 117 -8 156q-19 81 -88 120
h409q-69 -39 -88 -120q-8 -39 -8 -156v-871q0 -116 8 -155q19 -82 88 -121z" />
    <glyph glyph-name="V" unicode="V" horiz-adv-x="1341" 
d="M1327 1423l-577 -1486q-148 96 -191 147q-37 45 -88 182l-293 791q-79 217 -103 264t-85 102h315q-2 -10 -2 -24q0 -43 49 -176l355 -967l305 801q65 174 65 243q0 91 -77 123h327z" />
    <glyph glyph-name="W" unicode="W" horiz-adv-x="2052" 
d="M2028 1423l-457 -1484q-16 12 -78 53q-100 67 -131 107t-69 163l-244 768l-336 -1091q-39 28 -100 69q-86 58 -115 98.5t-66 155.5l-272 848q-49 154 -81 210t-91 103h315q-4 -24 -4 -26q0 -33 23 -103l336 -1044l268 860q37 119 37 182q0 74 -86 131h299q-6 -26 -6 -41
q0 -53 30 -149l314 -977l262 831q43 138 43 189q0 106 -117 147h326z" />
    <glyph glyph-name="X" unicode="X" horiz-adv-x="1478" 
d="M1466 0l-207 -12h-39q-61 0 -84.5 16t-74.5 94l-346 520l-316 -419q-47 -64 -47 -105q0 -55 78 -94h-420q57 57 80 86l158 201l362 471l-293 420q-84 120 -125 165q-49 54 -106 80l219 9q10 0 22 2h15q43 0 59.5 -12.5t69.5 -90.5l289 -411l231 311q51 69 51 119
q0 51 -88 73h397l-491 -641l360 -536q84 -125 128 -169t118 -77z" />
    <glyph glyph-name="Y" unicode="Y" horiz-adv-x="1306" 
d="M1299 1423l-531 -800v-369q0 -98 17 -141q20 -52 92 -113h-418q68 47 84 123q8 35 8 153v347l-372 600q-56 88 -90.5 123.5t-102.5 76.5l246 9q49 0 67.5 -14.5t63.5 -88.5l325 -532l273 413q41 62 41 105q0 65 -78 108h375z" />
    <glyph glyph-name="Z" unicode="Z" horiz-adv-x="1339" 
d="M1306 274l-112 -274h-1143l797 1247q-158 23 -355 23q-123 0 -180 -15q-67 -18 -172 -79l105 247h956l-791 -1241q265 -22 457 -22q232 0 438 114z" />
    <glyph glyph-name="bracketleft" unicode="[" horiz-adv-x="681" 
d="M595 -326h-483q59 45 74 113q8 33 8 135v1266q0 96 -8 129q-15 55 -74 106h483v-116h-217v-1510h217v-123z" />
    <glyph glyph-name="backslash" unicode="\" horiz-adv-x="765" 
d="M858 -297h-160l-678 1720h156z" />
    <glyph glyph-name="bracketright" unicode="]" horiz-adv-x="671" 
d="M559 -326h-473v123h217v1510h-217v116h473q-51 -51 -63 -108q-9 -33 -9 -127v-1266q0 -102 7 -135q12 -70 65 -113z" />
    <glyph glyph-name="asciicircum" unicode="^" horiz-adv-x="1067" 
d="M1027 758h-209l-286 516l-285 -516h-209l367 672h256z" />
    <glyph glyph-name="underscore" unicode="_" horiz-adv-x="1067" 
d="M1067 -297h-1067v154h1067v-154z" />
    <glyph glyph-name="grave" unicode="`" horiz-adv-x="1067" 
d="M688 1120l-535 236l131 135z" />
    <glyph glyph-name="a" unicode="a" horiz-adv-x="1116" 
d="M1103 127l-94 -141q-143 10 -201.5 48t-72.5 99q-11 37 -11 129v279q-73 -35 -276 -82q-156 -37 -156 -166q0 -82 60.5 -129t169.5 -47q69 0 161 28l-127 -161q-57 -13 -118 -13q-162 0 -256 84q-111 99 -111 240q0 149 121 217q82 45 285 84q143 27 193 57.5t50 89.5
q0 62 -57 100t-150 38q-114 0 -295 -86l144 217q71 14 149 14q275 0 365 -145q43 -70 43 -258v-279q0 -86 6 -111q12 -51 64 -81q38 -23 114 -25z" />
    <glyph glyph-name="b" unicode="b" horiz-adv-x="1204" 
d="M1120 528q0 -249 -169 -403t-448 -154q-256 0 -416 39q43 29 56 66q10 24 10 86v1048q0 105 -12.5 136.5t-69.5 76.5h150q86 0 126 41v-1314q105 -25 185 -25q168 0 267 97t99 263q0 168 -89 274.5t-230 106.5q-84 0 -184 -49l118 182q82 27 148 27q194 0 326.5 -143.5
t132.5 -354.5z" />
    <glyph glyph-name="c" unicode="c" horiz-adv-x="1067" 
d="M1074 221l-127 -211q-98 -39 -276 -39q-258 0 -424 142.5t-166 365.5q0 232 176 393q166 154 440 154q119 0 236 -27v-223q-107 105 -270 105q-164 0 -262.5 -97.5t-98.5 -259.5q0 -176 126 -291.5t317 -115.5q165 0 329 104z" />
    <glyph glyph-name="d" unicode="d" horiz-adv-x="1277" 
d="M1203 0h-276v492q0 106 -6 143q-13 74 -56 131q-92 119 -245 119q-140 0 -229 -99.5t-89 -253.5q0 -176 106.5 -293.5t268.5 -117.5q96 0 190 59l-124 -194q-54 -15 -109 -15q-197 0 -326 86q-227 152 -227 439q0 223 146.5 376.5t359.5 153.5q186 0 340 -127v311
q0 105 -12.5 137.5t-69.5 75.5h149q88 0 127 41v-1251q0 -104 12.5 -136t69.5 -77z" />
    <glyph glyph-name="e" unicode="e" horiz-adv-x="1191" 
d="M1109 229l-117 -206q-133 -52 -299 -52q-270 0 -441 147.5t-171 381.5q0 241 176 401q137 125 361 125q213 0 352 -133t139 -338v-35h-795q9 -188 123.5 -295.5t309.5 -107.5q202 0 362 112zM882 655q-45 240 -275 240q-233 0 -284 -240h559z" />
    <glyph glyph-name="f" unicode="f" horiz-adv-x="681" 
d="M790 1458l-154 -168q-53 35 -110 35q-92 0 -133 -63q-21 -33 -21 -127v-138h219q39 0 76 13v-191q-31 35 -115 35h-180v-567q0 -164 31 -219q24 -45 61 -68h-368q57 43 69.5 76t12.5 137v641h-109l109 143v105q0 166 118.5 268.5t345.5 102.5q64 0 148 -15z" />
    <glyph glyph-name="g" unicode="g" horiz-adv-x="1267" 
d="M1261 1026l-62 -139q-14 -27 -61 -27q-59 0 -238 31q160 -113 160 -268q0 -205 -246 -295q-82 -29 -215 -43q-86 -17 -86 -56q0 -41 90 -41q248 -2 361 -34q131 -39 201 -131q47 -62 47 -158q0 -193 -209 -295q-166 -82 -381 -82q-250 0 -421 90t-171 221q0 80 53 126
t148 46q55 0 116 -26q-96 -19 -96 -99q0 -108 99.5 -170.5t269.5 -62.5t276.5 65.5t106.5 169.5q0 207 -438 207q-76 0 -105 -2t-49 -2q-62 0 -102 37q-52 47 -52 117q0 31 32 52.5t140 64.5q-96 26 -155 77q-119 105 -119 258q0 158 128 263.5t316 105.5q45 0 189 -10
q114 -8 207 -8q122 0 266 18zM849 639q0 111 -78.5 186.5t-193.5 75.5q-94 0 -157.5 -58.5t-63.5 -146.5q0 -112 81.5 -194t194.5 -82q96 0 156.5 60.5t60.5 158.5z" />
    <glyph glyph-name="h" unicode="h" horiz-adv-x="1206" 
d="M1126 0h-361q57 43 70.5 76t13.5 137v383q0 131 -41 184q-69 92 -209 92q-135 0 -207 -86q-26 -30 -32.5 -60t-6.5 -118v-395q0 -104 12.5 -136t71.5 -77h-360q57 45 69.5 77t12.5 136v997q0 107 -11.5 136.5t-70.5 76.5h150q88 0 126 41v-575q105 137 324 137
q213 0 313 -141q54 -74 54 -223v-449q0 -102 12 -135t70 -78z" />
    <glyph glyph-name="i" unicode="i" horiz-adv-x="524" 
d="M395 1264q0 -58 -39 -97t-96 -39q-55 0 -94 39t-39 97q0 55 40 94t97 39q53 0 92 -40t39 -93zM444 0h-358q57 45 69.5 77t12.5 136v571q0 105 -12.5 136.5t-69.5 76.5h150q88 0 126 41v-825q0 -104 12.5 -136t69.5 -77z" />
    <glyph glyph-name="j" unicode="j" horiz-adv-x="520" 
d="M389 1268q0 -58 -38.5 -96.5t-94.5 -38.5q-57 0 -96 38.5t-39 96.5q0 55 40 94t97 39q54 0 92.5 -40t38.5 -93zM363 -47q0 -156 -12.5 -208t-61.5 -99q-113 -107 -342 -135q133 81 177 172.5t44 279.5v821q0 105 -12 137.5t-70 75.5h150q86 0 127 41v-1085z" />
    <glyph glyph-name="k" unicode="k" horiz-adv-x="1081" 
d="M1105 0q-82 -6 -174 -6q-86 0 -127 26q-35 21 -92 103q-84 121 -174 242q-39 57 -123 161q-6 11 -23 31l197 217q96 107 96 156q0 31 -43 67h330l-363 -417q101 -123 279 -357q121 -157 217 -223zM435 0h-358q57 45 69.5 77t12.5 136v997q0 107 -11.5 136.5t-70.5 76.5
h150q88 0 126 41v-1251q0 -104 12.5 -136t69.5 -77z" />
    <glyph glyph-name="l" unicode="l" horiz-adv-x="516" 
d="M435 0h-358q57 45 69.5 77t12.5 136v997q0 107 -11.5 136.5t-70.5 76.5h150q88 0 126 41v-1251q0 -104 12.5 -136t69.5 -77z" />
    <glyph glyph-name="m" unicode="m" horiz-adv-x="1896" 
d="M1821 0h-375q57 43 70.5 76t13.5 137v334q0 166 -55 235q-68 84 -193 84q-154 0 -217 -121q-23 -43 -23 -163v-369q0 -104 12.5 -136t71.5 -77h-360q57 43 69.5 76t12.5 137v352q0 154 -66.5 223.5t-179.5 69.5q-158 0 -217 -121q-23 -45 -23 -141v-383q0 -104 12.5 -137
t69.5 -76h-358q57 45 69.5 77t12.5 136v571q0 105 -12.5 136.5t-69.5 76.5h150q81 0 116 41v-182q125 170 316 170q213 0 329 -190q78 104 155 147t185 43q117 0 209 -47q105 -51 148 -150q30 -71 30 -229v-387q0 -94 11 -127q18 -57 86 -86z" />
    <glyph glyph-name="n" unicode="n" horiz-adv-x="1214" 
d="M1137 0h-361q58 45 71 78t13 135v344q0 156 -47 217q-72 92 -217 92q-66 0 -129.5 -30.5t-89.5 -85.5q-15 -33 -15 -101v-436q0 -104 12.5 -136t69.5 -77h-358q57 45 69.5 77t12.5 136v571q0 105 -12.5 136.5t-69.5 76.5h139q88 0 127 41v-180q144 168 320 168
q112 0 209 -49q108 -55 147 -152q27 -67 27 -245v-367q0 -104 12 -136t70 -77z" />
    <glyph glyph-name="o" unicode="o" horiz-adv-x="1292" 
d="M1209 506q0 -225 -165.5 -380t-409.5 -155q-238 0 -395.5 148.5t-157.5 374.5q0 258 203 413q155 119 383 119q223 0 375 -139q167 -156 167 -381zM988 475q0 182 -98 294t-258 112q-145 0 -237.5 -100.5t-92.5 -260.5q0 -174 99.5 -288.5t250.5 -114.5q150 0 243 99
t93 259z" />
    <glyph glyph-name="p" unicode="p" horiz-adv-x="1284" 
d="M1201 514q0 -233 -148 -388t-372 -155q-84 0 -164 29l-116 176q127 -59 241 -59q162 0 250 98t88 277q0 174 -91 281.5t-236 107.5q-158 0 -252 -117q-54 -66 -54 -201v-796q0 -91 9 -119q14 -56 73 -90h-358q59 34 74 90q8 26 8 119v1017q0 105 -12.5 136.5t-69.5 76.5
h150q88 0 126 41v-168q130 156 357 156q213 0 360 -149q137 -140 137 -363z" />
    <glyph glyph-name="q" unicode="q" horiz-adv-x="1280" 
d="M1199 -442h-358q59 49 70.5 79.5t11.5 135.5v1046q-148 43 -242 43q-170 0 -273.5 -100t-103.5 -264q0 -170 108.5 -275.5t282.5 -105.5q90 0 170 35l-104 -156q-62 -25 -143 -25q-236 0 -385.5 137.5t-149.5 350.5q0 137 66.5 259t181.5 191q147 92 356 90l512 -2
q-57 -45 -69.5 -76.5t-12.5 -136.5v-1011q0 -105 11.5 -135.5t70.5 -79.5z" />
    <glyph glyph-name="r" unicode="r" horiz-adv-x="714" 
d="M696 819q-37 35 -102 35q-125 0 -186 -88q-46 -64 -46 -197v-356q0 -104 12.5 -136t69.5 -77h-358q57 45 69.5 77t12.5 136v571q0 105 -12.5 136.5t-69.5 76.5h150q88 0 126 41v-178q89 166 259 166q28 0 75 -8v-199z" />
    <glyph glyph-name="s" unicode="s" horiz-adv-x="956" 
d="M903 307q0 -153 -130 -244.5t-347 -91.5q-150 0 -291 54l-74 213q219 -134 406 -134q100 0 166.5 43t66.5 109q0 63 -49 98q-43 29 -207 88q-186 68 -256 129.5t-70 163.5q0 137 113 214t311 77q140 0 242 -29v-184q-139 84 -266 84q-88 0 -143.5 -34t-55.5 -87
q0 -45 50 -78.5t179 -74.5q199 -64 271 -127q84 -76 84 -189z" />
    <glyph glyph-name="t" unicode="t" horiz-adv-x="710" 
d="M692 137l-113 -153q-37 -13 -78 -13q-131 0 -221 95q-55 59 -71 145q-7 43 -7 166v477h-147v78q111 18 178 94q80 88 80 266v27h84v-322h168q94 0 127 13v-195q-45 39 -135 39h-160v-459q0 -155 39 -202q59 -74 166 -74q43 0 90 18z" />
    <glyph glyph-name="u" unicode="u" horiz-adv-x="1206" 
d="M1126 0h-269v141q-78 -98 -143.5 -134t-169.5 -36q-223 0 -324 152q-61 92 -61 274v387q0 105 -12.5 136.5t-69.5 76.5h147q91 0 129 41v-602q0 -149 54 -215q65 -82 192 -82q113 0 181.5 71t68.5 187v387q0 105 -12 137.5t-70 75.5h152q86 0 125 41v-825q0 -104 12 -136
t70 -77z" />
    <glyph glyph-name="v" unicode="v" horiz-adv-x="1163" 
d="M1160 997l-492 -1077q-125 72 -166 117t-88 153l-254 584q-47 111 -73.5 142.5t-110.5 80.5h143q103 0 158 39q4 -47 27 -100l323 -752l258 578q37 82 37 127q0 57 -69 108h307z" />
    <glyph glyph-name="w" unicode="w" horiz-adv-x="1705" 
d="M1702 997l-432 -1054q-94 51 -135 98t-74 137l-194 533l-295 -768q-109 55 -151 99t-77 136l-231 604q-41 109 -60.5 141.5t-68.5 73.5h127q86 0 133 33q4 -53 39 -143l244 -647l209 542q30 80 30 127q0 43 -61 88h285q-2 -24 -2 -30q0 -17 22 -80l231 -647l211 542
q33 84 33 115q0 51 -74 100h291z" />
    <glyph glyph-name="x" unicode="x" horiz-adv-x="1130" 
d="M1141 0l-193 -12h-32q-52 0 -70 11t-59 67l-240 327l-219 -256q-37 -43 -37 -76q0 -30 47 -61h-348l463 518l-197 258q-119 156 -211 221l217 9q45 0 61.5 -11.5t61.5 -70.5l201 -269l158 189q41 49 41 82q0 41 -58 71h361l-406 -465l254 -335q113 -150 205 -197z" />
    <glyph glyph-name="y" unicode="y" horiz-adv-x="1148" 
d="M1139 997l-461 -1099q-72 -170 -166 -246q-119 -94 -293 -94q-110 0 -262 55l195 141q61 -39 122 -39q166 0 254 248l21 57q-70 70 -111 160l-286 625q-41 90 -74 129t-88 63l209 9q45 2 64.5 -3.5t45.5 -66.5l330 -743l227 575q33 84 33 131q0 55 -63 98h303z" />
    <glyph glyph-name="z" unicode="z" horiz-adv-x="1058" 
d="M1060 233l-120 -233h-918l614 842q-145 14 -241 14q-199 0 -307 -76l106 217h768l-588 -833q158 -17 342 -17q199 0 344 86z" />
    <glyph glyph-name="braceleft" unicode="{" horiz-adv-x="681" 
d="M596 -326h-320q-55 0 -73 37q-9 23 -9 199v446q0 54 -26 78q-17 17 -78 37v154q57 20 76 37q28 26 28 77v449q0 184 13 207q20 28 69 28h320v-116h-103q-77 0 -95.5 -18.5t-18.5 -96.5v-471q0 -72 -18.5 -106.5t-77.5 -65.5q59 -33 77.5 -68t18.5 -106v-469
q0 -78 17.5 -96.5t94.5 -18.5h105v-117z" />
    <glyph glyph-name="bar" unicode="|" horiz-adv-x="1067" 
d="M633 -356h-197v1779h197v-1779z" />
    <glyph glyph-name="braceright" unicode="}" horiz-adv-x="681" 
d="M592 471q-62 -20 -80 -37q-25 -22 -25 -78v-446q0 -184 -14 -207q-18 -29 -70 -29h-317v117h102q78 0 96.5 18.5t18.5 96.5v469q0 71 18.5 107t77.5 67q-59 31 -77.5 65.5t-18.5 106.5v471q0 78 -18.5 96.5t-96.5 18.5h-102v116h317q58 0 76 -37q8 -22 8 -198v-449
q0 -53 27 -77q18 -17 78 -37v-154z" />
    <glyph glyph-name="asciitilde" unicode="~" horiz-adv-x="1423" 
d="M1226 1499q-65 -135 -135 -190q-82 -64 -184 -64q-68 0 -301 98q-74 31 -123 31q-97 0 -174 -147l-113 73q51 107 82 148q88 115 219 115q78 0 236 -68q143 -61 198 -61q58 0 95.5 27.5t84.5 105.5z" />
    <glyph glyph-name="dieresis" unicode="&#xa8;" horiz-adv-x="1033" 
 />
    <glyph glyph-name="copyright" unicode="&#xa9;" horiz-adv-x="1667" 
d="M1582 711q0 -310 -220 -528t-531 -218q-312 0 -531 218t-219 528q0 313 221 530t539 217q305 0 523 -220t218 -527zM1482 711q0 276 -191.5 467.5t-466.5 191.5q-264 0 -453.5 -194.5t-189.5 -464.5q0 -273 190.5 -465.5t459.5 -192.5q270 0 460.5 192.5t190.5 465.5z
M1222 479l-78 -168q-100 -41 -215 -41q-238 0 -376 122t-138 329q0 197 132 321.5t343 124.5q117 0 256 -34v-164q-137 75 -252 75q-137 0 -225 -86t-88 -219q0 -145 96 -247.5t235 -102.5q130 0 310 90z" />
    <glyph glyph-name="registered" unicode="&#xae;" horiz-adv-x="1667" 
d="M1582 711q0 -310 -220 -528t-531 -218q-312 0 -531 218t-219 528q0 313 221 530t539 217q305 0 523 -220t218 -527zM1482 711q0 276 -191.5 467.5t-466.5 191.5q-264 0 -453.5 -194.5t-189.5 -464.5q0 -273 190.5 -465.5t459.5 -192.5q270 0 460.5 192.5t190.5 465.5z
M1298 309q-93 -16 -123 -16q-95 0 -209 123q-156 168 -242 311q229 37 229 178q0 60 -43 96.5t-112 36.5q-39 0 -88 -8v-581q0 -78 8 -103q14 -43 74 -67h-312q60 24 74 67q8 23 8 103v514q0 77 -8 100q-14 43 -74 70h285q16 0 39 2h25q129 0 208.5 -60.5t79.5 -159.5
q0 -159 -213 -223q146 -186 221.5 -260t172.5 -123z" />
    <glyph glyph-name="acute" unicode="&#xb4;" horiz-adv-x="1033" 
 />
    <glyph glyph-name="paragraph" unicode="&#xb6;" horiz-adv-x="1033" 
 />
    <glyph glyph-name="onequarter" unicode="&#xbc;" horiz-adv-x="1967" 
 />
    <glyph glyph-name="onehalf" unicode="&#xbd;" horiz-adv-x="1967" 
 />
    <glyph glyph-name="threequarters" unicode="&#xbe;" horiz-adv-x="1967" 
 />
    <glyph glyph-name="Agrave" unicode="&#xc0;" 
d="M944 1538l-590 176l119 160zM1566 0h-448q78 47 78 86q0 25 -37 121l-127 330h-547l-123 -330q-25 -66 -25 -111q0 -55 78 -96h-397q74 47 108.5 98.5t92.5 192.5l381 950q24 62 24 98q0 52 -65 84h344l454 -1132q52 -129 95 -188.5t114 -102.5zM976 676l-219 565
l-221 -565h440z" />
    <glyph glyph-name="Aacute" unicode="&#xc1;" 
d="M1220 1714l-590 -176l471 336zM1566 0h-448q78 47 78 86q0 25 -37 121l-127 330h-547l-123 -330q-25 -66 -25 -111q0 -55 78 -96h-397q74 47 108.5 98.5t92.5 192.5l381 950q24 62 24 98q0 52 -65 84h344l454 -1132q52 -129 95 -188.5t114 -102.5zM976 676l-219 565
l-221 -565h440z" />
    <glyph glyph-name="Acircumflex" unicode="&#xc2;" 
d="M1136 1550q-149 2 -350 105q-188 -105 -356 -105l356 305zM1566 0h-448q78 47 78 86q0 25 -37 121l-127 330h-547l-123 -330q-25 -66 -25 -111q0 -55 78 -96h-397q74 47 108.5 98.5t92.5 192.5l381 950q24 62 24 98q0 52 -65 84h344l454 -1132q52 -129 95 -188.5
t114 -102.5zM976 676l-219 565l-221 -565h440z" />
    <glyph glyph-name="Atilde" unicode="&#xc3;" 
d="M1161 1847q-8 -26 -27 -75q-33 -93 -59 -125q-49 -60 -139 -60q-52 0 -160 37q-140 47 -205 47q-51 0 -90 -22q-21 -11 -76 -58q47 131 66 162q43 66 127 66q38 0 131 -27q16 -6 141 -41q57 -16 88 -16q70 0 203 112zM1566 0h-448q78 47 78 86q0 25 -37 121l-127 330
h-547l-123 -330q-25 -66 -25 -111q0 -55 78 -96h-397q74 47 108.5 98.5t92.5 192.5l381 950q24 62 24 98q0 52 -65 84h344l454 -1132q52 -129 95 -188.5t114 -102.5zM976 676l-219 565l-221 -565h440z" />
    <glyph glyph-name="Egrave" unicode="&#xc8;" horiz-adv-x="1126" 
d="M751 1538l-590 176l119 160zM1107 283l-100 -283h-901q70 37 88 121q8 39 8 158v868q0 117 -8 156q-18 83 -88 120h719q47 0 82 13v-252q-58 55 -121 71q-47 15 -143 15q-136 0 -224 -15v-403h289q43 0 74 14v-229q-45 59 -170 59h-193v-514q138 -22 267 -22
q258 0 421 123z" />
    <glyph glyph-name="Eacute" unicode="&#xc9;" horiz-adv-x="1126" 
d="M987 1714l-590 -176l471 336zM1107 283l-100 -283h-901q70 37 88 121q8 39 8 158v868q0 117 -8 156q-18 83 -88 120h719q47 0 82 13v-252q-58 55 -121 71q-47 15 -143 15q-136 0 -224 -15v-403h289q43 0 74 14v-229q-45 59 -170 59h-193v-514q138 -22 267 -22
q258 0 421 123z" />
    <glyph glyph-name="Ecircumflex" unicode="&#xca;" horiz-adv-x="1126" 
d="M915 1550q-150 2 -350 105q-189 -105 -357 -105l357 305zM1107 283l-100 -283h-901q70 37 88 121q8 39 8 158v868q0 117 -8 156q-18 83 -88 120h719q47 0 82 13v-252q-58 55 -121 71q-47 15 -143 15q-136 0 -224 -15v-403h289q43 0 74 14v-229q-45 59 -170 59h-193v-514
q138 -22 267 -22q258 0 421 123z" />
    <glyph glyph-name="Igrave" unicode="&#xcc;" horiz-adv-x="622" 
d="M514 1538l-532 176l119 160zM517 0h-410q70 37 88 121q8 37 8 155v871q0 119 -8 156q-18 83 -88 120h410q-70 -37 -89 -120q-8 -37 -8 -156v-871q0 -118 8 -155q19 -84 89 -121z" />
    <glyph glyph-name="Iacute" unicode="&#xcd;" horiz-adv-x="622" 
d="M649 1714l-533 -176l414 336zM516 0h-410q70 37 88 121q8 37 8 155v871q0 119 -8 156q-18 83 -88 120h410q-70 -37 -88 -120q-9 -37 -9 -156v-871q0 -118 9 -155q18 -84 88 -121z" />
    <glyph glyph-name="Ograve" unicode="&#xd2;" horiz-adv-x="1753" 
d="M1062 1538l-590 176l119 160zM1668 721q0 -318 -232.5 -537t-566.5 -219q-329 0 -558.5 215t-229.5 525q0 321 234.5 538t582.5 217q332 0 551 -213q102 -98 160.5 -239.5t58.5 -286.5zM1422 688q0 250 -147 428q-156 189 -408 189q-237 0 -389.5 -157t-152.5 -407
q0 -266 174 -458q145 -162 379 -162q243 0 393.5 156.5t150.5 410.5z" />
    <glyph glyph-name="Oacute" unicode="&#xd3;" horiz-adv-x="1753" 
d="M1298 1714l-590 -176l471 336zM1668 721q0 -318 -232.5 -537t-566.5 -219q-329 0 -558.5 215t-229.5 525q0 321 234.5 538t582.5 217q332 0 551 -213q102 -98 160.5 -239.5t58.5 -286.5zM1422 688q0 250 -147 428q-156 189 -408 189q-237 0 -389.5 -157t-152.5 -407
q0 -266 174 -458q145 -162 379 -162q243 0 393.5 156.5t150.5 410.5z" />
    <glyph glyph-name="Ocircumflex" unicode="&#xd4;" horiz-adv-x="1753" 
d="M1228 1550q-150 2 -350 105q-189 -105 -357 -105l357 305zM1668 721q0 -318 -232.5 -537t-566.5 -219q-329 0 -558.5 215t-229.5 525q0 321 234.5 538t582.5 217q332 0 551 -213q102 -98 160.5 -239.5t58.5 -286.5zM1422 688q0 250 -147 428q-156 189 -408 189
q-237 0 -389.5 -157t-152.5 -407q0 -266 174 -458q145 -162 379 -162q243 0 393.5 156.5t150.5 410.5z" />
    <glyph glyph-name="Otilde" unicode="&#xd5;" horiz-adv-x="1753" 
d="M1273 1847q-8 -26 -27 -75q-32 -93 -59 -125q-49 -60 -139 -60q-52 0 -160 37q-139 47 -205 47q-51 0 -90 -22q-20 -11 -76 -58q47 131 66 162q43 66 127 66q39 0 131 -27q16 -6 141 -41q57 -16 88 -16q70 0 203 112zM1668 721q0 -318 -232.5 -537t-566.5 -219
q-329 0 -558.5 215t-229.5 525q0 321 234.5 538t582.5 217q332 0 551 -213q102 -98 160.5 -239.5t58.5 -286.5zM1422 688q0 250 -147 428q-156 189 -408 189q-237 0 -389.5 -157t-152.5 -407q0 -266 174 -458q145 -162 379 -162q243 0 393.5 156.5t150.5 410.5z" />
    <glyph glyph-name="Ugrave" unicode="&#xd9;" horiz-adv-x="1540" 
d="M929 1538l-589 176l118 160zM1433 0h-305v150q-154 -185 -428 -185q-170 0 -297 76q-141 84 -186 235q-21 74 -21 242v629q0 119 -8 156q-18 83 -88 120h410q-70 -39 -88 -120q-9 -39 -9 -156v-629q0 -186 76 -276q100 -119 275 -119q206 0 315 153q41 62 41 168v703
q0 117 -8 156q-19 81 -88 120h409q-69 -39 -88 -120q-8 -39 -8 -156v-871q0 -116 8 -155q19 -82 88 -121z" />
    <glyph glyph-name="Uacute" unicode="&#xda;" horiz-adv-x="1540" 
d="M1208 1714l-590 -176l471 336zM1433 0h-305v150q-154 -185 -428 -185q-170 0 -297 76q-141 84 -186 235q-21 74 -21 242v629q0 119 -8 156q-18 83 -88 120h410q-70 -39 -88 -120q-9 -39 -9 -156v-629q0 -186 76 -276q100 -119 275 -119q206 0 315 153q41 62 41 168v703
q0 117 -8 156q-19 81 -88 120h409q-69 -39 -88 -120q-8 -39 -8 -156v-871q0 -116 8 -155q19 -82 88 -121z" />
    <glyph glyph-name="Yacute" unicode="&#xdd;" horiz-adv-x="1306" 
d="M1092 1714l-590 -176l471 336zM1299 1423l-531 -800v-369q0 -98 17 -141q20 -52 92 -113h-418q68 47 84 123q8 35 8 153v347l-372 600q-56 88 -90.5 123.5t-102.5 76.5l246 9q49 0 67.5 -14.5t63.5 -88.5l325 -532l273 413q41 62 41 105q0 65 -78 108h375z" />
    <glyph glyph-name="agrave" unicode="&#xe0;" horiz-adv-x="1116" 
d="M710 1120l-535 236l132 135zM1103 127l-94 -141q-143 10 -201.5 48t-72.5 99q-11 37 -11 129v279q-73 -35 -276 -82q-156 -37 -156 -166q0 -82 60.5 -129t169.5 -47q69 0 161 28l-127 -161q-57 -13 -118 -13q-162 0 -256 84q-111 99 -111 240q0 149 121 217q82 45 285 84
q143 27 193 57.5t50 89.5q0 62 -57 100t-150 38q-114 0 -295 -86l144 217q71 14 149 14q275 0 365 -145q43 -70 43 -258v-279q0 -86 6 -111q12 -51 64 -81q38 -23 114 -25z" />
    <glyph glyph-name="aacute" unicode="&#xe1;" horiz-adv-x="1116" 
d="M970 1356l-534 -236l405 371zM1103 127l-94 -141q-143 10 -201.5 48t-72.5 99q-11 37 -11 129v279q-73 -35 -276 -82q-156 -37 -156 -166q0 -82 60.5 -129t169.5 -47q69 0 161 28l-127 -161q-57 -13 -118 -13q-162 0 -256 84q-111 99 -111 240q0 149 121 217
q82 45 285 84q143 27 193 57.5t50 89.5q0 62 -57 100t-150 38q-114 0 -295 -86l144 217q71 14 149 14q275 0 365 -145q43 -70 43 -258v-279q0 -86 6 -111q12 -51 64 -81q38 -23 114 -25z" />
    <glyph glyph-name="acircumflex" unicode="&#xe2;" horiz-adv-x="1116" 
d="M886 1133q-143 12 -326 149q-174 -137 -331 -149l331 329zM1103 127l-94 -141q-143 10 -201.5 48t-72.5 99q-11 37 -11 129v279q-73 -35 -276 -82q-156 -37 -156 -166q0 -82 60.5 -129t169.5 -47q69 0 161 28l-127 -161q-57 -13 -118 -13q-162 0 -256 84
q-111 99 -111 240q0 149 121 217q82 45 285 84q143 27 193 57.5t50 89.5q0 62 -57 100t-150 38q-114 0 -295 -86l144 217q71 14 149 14q275 0 365 -145q43 -70 43 -258v-279q0 -86 6 -111q12 -51 64 -81q38 -23 114 -25z" />
    <glyph glyph-name="atilde" unicode="&#xe3;" horiz-adv-x="1116" 
d="M894 1434q-49 -242 -194 -242q-56 0 -152 33q-139 47 -182 47q-64 0 -152 -72q35 115 62 152q43 61 108 61q41 0 150 -33q147 -45 172 -45q78 0 188 99zM1103 127l-94 -141q-143 10 -201.5 48t-72.5 99q-11 37 -11 129v279q-73 -35 -276 -82q-156 -37 -156 -166
q0 -82 60.5 -129t169.5 -47q69 0 161 28l-127 -161q-57 -13 -118 -13q-162 0 -256 84q-111 99 -111 240q0 149 121 217q82 45 285 84q143 27 193 57.5t50 89.5q0 62 -57 100t-150 38q-114 0 -295 -86l144 217q71 14 149 14q275 0 365 -145q43 -70 43 -258v-279q0 -86 6 -111
q12 -51 64 -81q38 -23 114 -25z" />
    <glyph glyph-name="egrave" unicode="&#xe8;" horiz-adv-x="1191" 
d="M792 1120l-534 236l129 135zM1124 229l-117 -206q-133 -52 -299 -52q-270 0 -441 147.5t-171 381.5q0 241 176 401q137 125 359 125q213 0 353 -133t140 -338v-35h-795q9 -188 123.5 -295.5t309.5 -107.5q202 0 362 112zM882 655q-45 242 -274 242q-231 0 -285 -242h559z
" />
    <glyph glyph-name="eacute" unicode="&#xe9;" horiz-adv-x="1191" 
d="M980 1356l-534 -236l405 371zM1109 229l-117 -206q-133 -52 -299 -52q-270 0 -441 147.5t-171 381.5q0 241 176 401q137 125 361 125q213 0 352 -133t139 -338v-35h-795q9 -188 123.5 -295.5t309.5 -107.5q202 0 362 112zM882 655q-45 240 -275 240q-233 0 -284 -240h559
z" />
    <glyph glyph-name="ecircumflex" unicode="&#xea;" horiz-adv-x="1191" 
d="M951 1133q-143 12 -325 149q-174 -137 -332 -149l332 329zM1109 229l-117 -206q-133 -52 -299 -52q-270 0 -441 147.5t-171 381.5q0 241 176 401q137 125 361 125q213 0 352 -133t139 -338v-35h-795q9 -188 123.5 -295.5t309.5 -107.5q202 0 362 112zM882 655
q-45 240 -275 240q-233 0 -284 -240h559z" />
    <glyph glyph-name="igrave" unicode="&#xec;" horiz-adv-x="524" 
d="M416 1120l-510 223l125 130zM445 0h-359q58 45 70 77t12 136v571q0 105 -12 136.5t-70 76.5h150q88 0 127 41v-825q0 -104 12 -136t70 -77z" />
    <glyph glyph-name="iacute" unicode="&#xed;" horiz-adv-x="524" 
d="M621 1343l-508 -223l383 353zM444 0h-358q57 45 69.5 77t12.5 136v571q0 105 -12.5 136.5t-69.5 76.5h150q88 0 126 41v-825q0 -104 12.5 -136t69.5 -77z" />
    <glyph glyph-name="ograve" unicode="&#xf2;" horiz-adv-x="1292" 
d="M798 1120l-535 236l131 135zM1209 506q0 -225 -165.5 -380t-409.5 -155q-238 0 -395.5 148.5t-157.5 374.5q0 258 203 413q155 119 383 119q223 0 375 -139q167 -156 167 -381zM988 475q0 182 -98 294t-258 112q-145 0 -237.5 -100.5t-92.5 -260.5q0 -174 99.5 -288.5
t250.5 -114.5q150 0 243 99t93 259z" />
    <glyph glyph-name="oacute" unicode="&#xf3;" horiz-adv-x="1292" 
d="M1029 1356l-534 -236l405 371zM1209 506q0 -225 -165.5 -380t-409.5 -155q-238 0 -395.5 148.5t-157.5 374.5q0 258 203 413q155 119 383 119q223 0 375 -139q167 -156 167 -381zM988 475q0 182 -98 294t-258 112q-145 0 -237.5 -100.5t-92.5 -260.5q0 -174 99.5 -288.5
t250.5 -114.5q150 0 243 99t93 259z" />
    <glyph glyph-name="ocircumflex" unicode="&#xf4;" horiz-adv-x="1292" 
d="M974 1133q-143 12 -326 149q-174 -137 -331 -149l331 329zM1209 506q0 -225 -165.5 -380t-409.5 -155q-238 0 -395.5 148.5t-157.5 374.5q0 258 203 413q155 119 383 119q223 0 375 -139q167 -156 167 -381zM988 475q0 182 -98 294t-258 112q-145 0 -237.5 -100.5
t-92.5 -260.5q0 -174 99.5 -288.5t250.5 -114.5q150 0 243 99t93 259z" />
    <glyph glyph-name="otilde" unicode="&#xf5;" horiz-adv-x="1292" 
d="M999 1434q-50 -242 -195 -242q-55 0 -152 33q-139 47 -182 47q-63 0 -151 -72q34 115 61 152q43 61 109 61q41 0 149 -33q148 -45 172 -45q78 0 189 99zM1209 506q0 -225 -165.5 -380t-409.5 -155q-238 0 -395.5 148.5t-157.5 374.5q0 258 203 413q155 119 383 119
q223 0 375 -139q167 -156 167 -381zM988 475q0 182 -98 294t-258 112q-145 0 -237.5 -100.5t-92.5 -260.5q0 -174 99.5 -288.5t250.5 -114.5q150 0 243 99t93 259z" />
    <glyph glyph-name="divide" unicode="&#xf7;" horiz-adv-x="1720" 
 />
    <glyph glyph-name="glyph216" unicode="&#xf9;" horiz-adv-x="1206" 
d="M755 1120l-535 236l131 135zM1126 0h-269v141q-78 -98 -143.5 -134t-169.5 -36q-223 0 -324 152q-61 92 -61 274v387q0 105 -12.5 136.5t-69.5 76.5h147q91 0 129 41v-602q0 -149 54 -215q65 -82 192 -82q113 0 181.5 71t68.5 187v387q0 105 -12 137.5t-70 75.5h152
q86 0 125 41v-825q0 -104 12 -136t70 -77z" />
    <glyph glyph-name="glyph217" unicode="&#xfa;" horiz-adv-x="1206" 
d="M986 1356l-534 -236l405 371zM1126 0h-269v141q-78 -98 -143.5 -134t-169.5 -36q-223 0 -324 152q-61 92 -61 274v387q0 105 -12.5 136.5t-69.5 76.5h147q91 0 129 41v-602q0 -149 54 -215q65 -82 192 -82q113 0 181.5 71t68.5 187v387q0 105 -12 137.5t-70 75.5h152
q86 0 125 41v-825q0 -104 12 -136t70 -77z" />
    <glyph glyph-name="glyph234" unicode="&#xfd;" horiz-adv-x="1148" 
d="M973 1356l-535 -236l406 371zM1139 997l-461 -1099q-72 -170 -166 -246q-119 -94 -293 -94q-110 0 -262 55l195 141q61 -39 122 -39q166 0 254 248l21 57q-70 70 -111 160l-286 625q-41 90 -74 129t-88 63l209 9q45 2 64.5 -3.5t45.5 -66.5l330 -743l227 575
q33 84 33 131q0 55 -63 98h303z" />
    <glyph glyph-name="Abreve" unicode="&#x102;" 
d="M1566 0h-448q78 47 78 86q0 25 -37 121l-127 330h-547l-123 -330q-25 -66 -25 -111q0 -55 78 -96h-397q74 47 108.5 98.5t92.5 192.5l381 950q24 62 24 98q0 52 -65 84h344l454 -1132q52 -129 95 -188.5t114 -102.5zM976 676l-219 565l-221 -565h440zM1085 1806
q-31 -98 -70 -152q-90 -118 -264 -118q-207 0 -289 168q-12 25 -35 102h121q70 -140 203 -140q84 0 127 28.5t86 111.5h121z" />
    <glyph glyph-name="abreve" unicode="&#x103;" horiz-adv-x="1116" 
d="M1103 127l-94 -141q-143 10 -201.5 48t-72.5 99q-11 37 -11 129v279q-73 -35 -276 -82q-156 -37 -156 -166q0 -82 60.5 -129t169.5 -47q69 0 161 28l-127 -161q-57 -13 -118 -13q-162 0 -256 84q-111 99 -111 240q0 149 121 217q82 45 285 84q143 27 193 57.5t50 89.5
q0 62 -57 100t-150 38q-114 0 -295 -86l144 217q71 14 149 14q275 0 365 -145q43 -70 43 -258v-279q0 -86 6 -111q12 -51 64 -81q38 -23 114 -25zM903 1389q-30 -98 -69 -152q-90 -118 -264 -118q-207 0 -289 168q-12 25 -35 102h121q69 -140 203 -140q84 0 127 28.5
t86 111.5h120z" />
    <glyph glyph-name="Ccaron" unicode="&#x10c;" horiz-adv-x="1285" 
 />
    <glyph glyph-name="ccaron" unicode="&#x10d;" horiz-adv-x="930" 
 />
    <glyph glyph-name="Dslash" unicode="&#x110;" horiz-adv-x="1521" 
d="M1438 727q0 -215 -112 -393t-300 -262q-160 -72 -571 -72h-349q50 47 60 59.5t18 36.5q19 60 19 191v381h-197v141h197v338q0 117 -9 156q-18 81 -88 120h559q320 0 531 -174q242 -198 242 -522zM1200 705q0 251 -150.5 413t-431.5 162q-86 0 -198 -25v-446h413v-141
h-413v-490q88 -16 159 -16q269 0 412 104q209 154 209 439z" />
    <glyph glyph-name="dcroat" unicode="&#x111;" horiz-adv-x="1277" 
d="M1121 1090v-877q0 -104 12.5 -136t69.5 -77h-276v492q0 106 -6 143q-13 74 -56 131q-92 119 -245 119q-140 0 -229 -99.5t-89 -253.5q0 -176 106.5 -293.5t268.5 -117.5q96 0 190 59l-125 -194q-53 -15 -108 -15q-197 0 -326 86q-227 152 -227 439q0 223 146.5 376.5
t359.5 153.5q186 0 340 -127v191h-362v127h362q0 99 -12 131q-13 32 -70 75h149q88 0 127 41v-247h179v-127h-179z" />
    <glyph glyph-name="Itilde" unicode="&#x128;" horiz-adv-x="622" 
d="M516 0h-410q70 37 88 121q9 37 9 155v871q0 119 -9 156q-18 83 -88 120h410q-70 -37 -88 -120q-8 -37 -8 -156v-871q0 -118 8 -155q18 -84 88 -121zM754 1847q-8 -26 -27 -75q-33 -93 -59 -125q-49 -60 -140 -60q-51 0 -159 37q-140 47 -205 47q-51 0 -90 -22
q-21 -11 -76 -58q47 131 66 162q43 66 127 66q38 0 131 -27q16 -6 141 -41q57 -16 88 -16q70 0 203 112z" />
    <glyph glyph-name="itilde" unicode="&#x129;" horiz-adv-x="524" 
d="M444 0h-358q57 45 69.5 77t12.5 136v571q0 105 -12.5 136.5t-69.5 76.5h149q89 0 127 41v-825q0 -104 12.5 -136t69.5 -77zM615 1407q-49 -242 -195 -242q-55 0 -151 33q-139 47 -182 47q-64 0 -152 -72q35 115 61 152q43 61 109 61q41 0 149 -33q148 -45 173 -45
q77 0 188 99z" />
    <glyph glyph-name="Utilde" unicode="&#x168;" horiz-adv-x="1540" 
d="M1433 0h-305v150q-154 -185 -428 -185q-170 0 -297 76q-141 84 -186 235q-21 74 -21 242v629q0 119 -8 156q-18 83 -88 120h410q-70 -39 -88 -120q-9 -39 -9 -156v-629q0 -186 76 -276q100 -119 275 -119q206 0 315 153q41 62 41 168v703q0 117 -8 156q-19 81 -88 120
h409q-69 -39 -88 -120q-8 -39 -8 -156v-871q0 -116 8 -155q19 -82 88 -121zM1202 1847q-9 -26 -27 -75q-33 -93 -60 -125q-49 -60 -139 -60q-51 0 -160 37q-139 47 -204 47q-52 0 -90 -22q-21 -11 -76 -58q47 131 65 162q43 66 127 66q39 0 131 -27q17 -6 142 -41
q57 -16 88 -16q69 0 203 112z" />
    <glyph glyph-name="utilde" unicode="&#x169;" horiz-adv-x="1206" 
d="M1126 0h-269v141q-78 -98 -143.5 -134t-169.5 -36q-223 0 -324 152q-61 92 -61 274v387q0 105 -12.5 136.5t-69.5 76.5h147q91 0 129 41v-602q0 -149 54 -215q65 -82 192 -82q113 0 181.5 71t68.5 187v387q0 105 -12 137.5t-70 75.5h152q86 0 125 41v-825q0 -104 12 -136
t70 -77zM945 1434q-50 -242 -195 -242q-55 0 -152 33q-139 47 -182 47q-63 0 -151 -72q34 115 61 152q43 61 109 61q41 0 149 -33q148 -45 172 -45q78 0 189 99z" />
    <glyph glyph-name="Ohorn" unicode="&#x1a0;" horiz-adv-x="1753" 
d="M1668 721q0 -318 -232.5 -537t-566.5 -219q-329 0 -558.5 215t-229.5 525q0 321 234.5 538t582.5 217q332 0 551 -213q102 -98 160.5 -239.5t58.5 -286.5zM1422 688q0 250 -147 428q-156 189 -408 189q-237 0 -389.5 -157t-152.5 -407q0 -266 174 -458q145 -162 379 -162
q243 0 393.5 156.5t150.5 410.5zM1653 1423q-62 -131 -254 -196q-51 -17 -75 -5q-15 7 -72 41q208 44 231 112q6 13 -29 43q-68 58 -29 141q22 46 72.5 63t98.5 -6q53 -25 69.5 -79.5t-12.5 -113.5z" />
    <glyph glyph-name="ohorn" unicode="&#x1a1;" horiz-adv-x="1292" 
d="M1209 506q0 -225 -165.5 -380t-409.5 -155q-238 0 -395.5 148.5t-157.5 374.5q0 258 203 413q155 119 383 119q223 0 375 -139q167 -156 167 -381zM988 475q0 182 -98 294t-258 112q-145 0 -237.5 -100.5t-92.5 -260.5q0 -174 99.5 -288.5t250.5 -114.5q150 0 243 99
t93 259zM1246 989q-62 -131 -254 -196q-51 -17 -75 -5q-15 7 -72 41q208 44 231 112q6 13 -29 43q-68 58 -29 141q22 46 72.5 63t98.5 -6q53 -25 69.5 -79.5t-12.5 -113.5z" />
    <glyph glyph-name="Uhorn" unicode="&#x1af;" horiz-adv-x="1540" 
d="M1336 1233l1 -957q0 -116 9 -155q18 -82 88 -121h-306v150q-153 -185 -428 -185q-170 0 -297 76q-141 84 -186 235q-20 74 -20 242v629q0 119 -9 156q-18 83 -88 120h410q-70 -39 -88 -120q-8 -39 -8 -156v-629q0 -186 75 -276q101 -119 275 -119q207 0 315 153
q41 62 41 168v703q0 117 -8 156q-18 81 -88 120h312v-109q56 28 67 61q6 13 -29 43q-68 58 -29 141q22 46 72 63t99 -6q53 -25 69 -79.5t-12 -113.5q-59 -125 -237 -190z" />
    <glyph glyph-name="uhorn" unicode="&#x1b0;" horiz-adv-x="1206" 
d="M1126 0h-269v141q-78 -98 -143.5 -134t-169.5 -36q-223 0 -324 152q-61 92 -61 274v387q0 105 -12.5 136.5t-69.5 76.5h147q91 0 129 41v-602q0 -149 54 -215q65 -82 192 -82q113 0 181.5 71t68.5 187v387q0 105 -12 137.5t-70 75.5h152q86 0 125 41v-825q0 -104 12 -136
t70 -77zM1291 989q-62 -131 -254 -196q-51 -17 -75 -5q-15 7 -72 41q208 44 231 112q6 13 -29 43q-68 58 -29 141q23 46 73 63t98 -6q53 -25 69.5 -79.5t-12.5 -113.5z" />
    <glyph glyph-name="uni1EA0" unicode="&#x1ea0;" 
d="M886 -294q0 -53 -37.5 -92t-91.5 -39q-55 0 -93 38t-38 93q0 53 39 91t94 38q52 0 89.5 -38t37.5 -91zM1566 0h-448q78 47 78 86q0 25 -37 121l-127 330h-547l-123 -330q-25 -66 -25 -111q0 -55 78 -96h-397q74 47 108.5 98.5t92.5 192.5l381 950q24 62 24 98
q0 52 -65 84h344l454 -1132q52 -129 95 -188.5t114 -102.5zM976 676l-219 565l-221 -565h440z" />
    <glyph glyph-name="uni1EA1" unicode="&#x1ea1;" horiz-adv-x="1116" 
d="M1103 127l-94 -141q-143 10 -201.5 48t-72.5 99q-11 37 -11 129v279q-73 -35 -276 -82q-156 -37 -156 -166q0 -82 60.5 -129t169.5 -47q69 0 161 28l-127 -161q-57 -13 -118 -13q-162 0 -256 84q-111 99 -111 240q0 149 121 217q82 45 285 84q143 27 193 57.5t50 89.5
q0 62 -57 100t-150 38q-114 0 -295 -86l144 217q71 14 149 14q275 0 365 -145q43 -70 43 -258v-279q0 -86 6 -111q12 -51 64 -81q38 -23 114 -25zM707 -294q0 -53 -38 -92t-91 -39q-55 0 -93 38t-38 93q0 53 39 91t94 38q51 0 89 -38t38 -91z" />
    <glyph glyph-name="uni1EA2" unicode="&#x1ea2;" 
d="M1566 0h-448q78 47 78 86q0 25 -37 121l-127 330h-547l-123 -330q-25 -66 -25 -111q0 -55 78 -96h-397q74 47 108.5 98.5t92.5 192.5l381 950q24 62 24 98q0 52 -65 84h344l454 -1132q52 -129 95 -188.5t114 -102.5zM976 676l-219 565l-221 -565h440zM1021 1810
q0 -47 -25 -84t-86 -85q-64 -50 -73.5 -61t-9.5 -31q0 -11 10 -47l-127 -13q-9 40 -9 56q0 40 20 70t70 68q81 61 81 109q0 40 -33.5 66t-83.5 26q-42 0 -197 -68l102 146q62 23 117 23q106 0 175 -49.5t69 -125.5z" />
    <glyph glyph-name="uni1EA3" unicode="&#x1ea3;" horiz-adv-x="1116" 
d="M1103 127l-94 -141q-143 10 -201.5 48t-72.5 99q-11 37 -11 129v279q-73 -35 -276 -82q-156 -37 -156 -166q0 -82 60.5 -129t169.5 -47q69 0 161 28l-127 -161q-57 -13 -118 -13q-162 0 -256 84q-111 99 -111 240q0 149 121 217q82 45 285 84q143 27 193 57.5t50 89.5
q0 62 -57 100t-150 38q-114 0 -295 -86l144 217q71 14 149 14q275 0 365 -145q43 -70 43 -258v-279q0 -86 6 -111q12 -51 64 -81q38 -23 114 -25zM810 1439q0 -47 -25 -84t-86 -85q-64 -50 -73.5 -61t-9.5 -31q0 -11 10 -47l-127 -13q-9 40 -9 56q0 40 20 70t70 68
q81 61 81 109q0 40 -34 66t-83 26q-42 0 -198 -68l103 146q62 23 117 23q106 0 175 -49.5t69 -125.5z" />
    <glyph glyph-name="uni1EA4" unicode="&#x1ea4;" 
d="M1112 1996l-590 -176l471 336zM1566 0h-448q78 47 78 86q0 25 -37 121l-127 330h-547l-123 -330q-25 -66 -25 -111q0 -55 78 -96h-397q74 47 108.5 98.5t92.5 192.5l381 950q24 62 24 98q0 52 -65 84h344l454 -1132q52 -129 95 -188.5t114 -102.5zM976 676l-219 565
l-221 -565h440zM1136 1550q-149 2 -350 105q-188 -105 -356 -105l356 305z" />
    <glyph glyph-name="uni1EA5" unicode="&#x1ea5;" horiz-adv-x="1116" 
d="M797 1610l-534 -236l405 371zM1103 127l-94 -141q-143 10 -201.5 48t-72.5 99q-11 37 -11 129v279q-73 -35 -276 -82q-156 -37 -156 -166q0 -82 60.5 -129t169.5 -47q69 0 161 28l-127 -161q-57 -13 -118 -13q-162 0 -256 84q-111 99 -111 240q0 149 121 217
q82 45 285 84q143 27 193 57.5t50 89.5q0 62 -57 100t-150 38q-114 0 -295 -86l144 217q71 14 149 14q275 0 365 -145q43 -70 43 -258v-279q0 -86 6 -111q12 -51 64 -81q38 -23 114 -25zM886 1133q-143 12 -326 149q-174 -137 -331 -149l331 329z" />
    <glyph glyph-name="uni1EA6" unicode="&#x1ea6;" 
d="M1088 1819l-590 176l119 160zM1566 0h-448q78 47 78 86q0 25 -37 121l-127 330h-547l-123 -330q-25 -66 -25 -111q0 -55 78 -96h-397q74 47 108.5 98.5t92.5 192.5l381 950q24 62 24 98q0 52 -65 84h344l454 -1132q52 -129 95 -188.5t114 -102.5zM976 676l-219 565
l-221 -565h440zM1136 1550q-149 2 -350 105q-188 -105 -356 -105l356 305z" />
    <glyph glyph-name="uni1EA7" unicode="&#x1ea7;" horiz-adv-x="1116" 
d="M854 1374l-535 236l132 135zM1103 127l-94 -141q-143 10 -201.5 48t-72.5 99q-11 37 -11 129v279q-73 -35 -276 -82q-156 -37 -156 -166q0 -82 60.5 -129t169.5 -47q69 0 161 28l-127 -161q-57 -13 -118 -13q-162 0 -256 84q-111 99 -111 240q0 149 121 217q82 45 285 84
q143 27 193 57.5t50 89.5q0 62 -57 100t-150 38q-114 0 -295 -86l144 217q71 14 149 14q275 0 365 -145q43 -70 43 -258v-279q0 -86 6 -111q12 -51 64 -81q38 -23 114 -25zM886 1133q-143 12 -326 149q-174 -137 -331 -149l331 329z" />
    <glyph glyph-name="uni1EA8" unicode="&#x1ea8;" 
d="M1566 0h-448q78 47 78 86q0 25 -37 121l-127 330h-547l-123 -330q-25 -66 -25 -111q0 -55 78 -96h-397q74 47 108.5 98.5t92.5 192.5l381 950q24 62 24 98q0 52 -65 84h344l454 -1132q52 -129 95 -188.5t114 -102.5zM976 676l-219 565l-221 -565h440zM1291 2063
q0 -47 -25 -84t-86 -85q-64 -50 -73.5 -61t-9.5 -31q0 -11 10 -47l-127 -13q-9 40 -9 56q0 40 20 70t70 68q81 61 81 109q0 40 -33.5 66t-83.5 26q-42 0 -197 -68l102 146q62 23 117 23q106 0 175 -49.5t69 -125.5zM1136 1550q-149 2 -350 105q-188 -105 -356 -105l356 305z
" />
    <glyph glyph-name="uni1EA9" unicode="&#x1ea9;" horiz-adv-x="1116" 
d="M1103 127l-94 -141q-143 10 -201.5 48t-72.5 99q-11 37 -11 129v279q-73 -35 -276 -82q-156 -37 -156 -166q0 -82 60.5 -129t169.5 -47q69 0 161 28l-127 -161q-57 -13 -118 -13q-162 0 -256 84q-111 99 -111 240q0 149 121 217q82 45 285 84q143 27 193 57.5t50 89.5
q0 62 -57 100t-150 38q-114 0 -295 -86l144 217q71 14 149 14q275 0 365 -145q43 -70 43 -258v-279q0 -86 6 -111q12 -51 64 -81q38 -23 114 -25zM1064 1647q0 -47 -25 -84t-86 -85q-64 -50 -73.5 -61t-9.5 -31q0 -11 10 -47l-127 -13q-9 40 -9 56q0 40 20 70t70 68
q81 61 81 109q0 40 -34 66t-83 26q-42 0 -198 -68l103 146q62 23 117 23q106 0 175 -49.5t69 -125.5zM886 1133q-143 12 -326 149q-174 -137 -331 -149l331 329z" />
    <glyph glyph-name="uni1EAA" unicode="&#x1eaa;" 
d="M1234 2119q-8 -26 -27 -75q-33 -93 -59 -125q-49 -60 -139 -60q-52 0 -160 37q-140 47 -205 47q-51 0 -90 -22q-21 -11 -76 -58q47 131 66 162q43 66 127 66q38 0 131 -27q16 -6 141 -41q57 -16 88 -16q70 0 203 112zM1566 0h-448q78 47 78 86q0 25 -37 121l-127 330
h-547l-123 -330q-25 -66 -25 -111q0 -55 78 -96h-397q74 47 108.5 98.5t92.5 192.5l381 950q24 62 24 98q0 52 -65 84h344l454 -1132q52 -129 95 -188.5t114 -102.5zM976 676l-219 565l-221 -565h440zM1136 1550q-149 2 -350 105q-188 -105 -356 -105l356 305z" />
    <glyph glyph-name="uni1EAB" unicode="&#x1eab;" horiz-adv-x="1116" 
d="M1002 1696q-49 -242 -194 -242q-56 0 -152 33q-139 47 -182 47q-64 0 -152 -72q35 115 62 152q43 61 108 61q41 0 150 -33q147 -45 172 -45q78 0 188 99zM1103 127l-94 -141q-143 10 -201.5 48t-72.5 99q-11 37 -11 129v279q-73 -35 -276 -82q-156 -37 -156 -166
q0 -82 60.5 -129t169.5 -47q69 0 161 28l-127 -161q-57 -13 -118 -13q-162 0 -256 84q-111 99 -111 240q0 149 121 217q82 45 285 84q143 27 193 57.5t50 89.5q0 62 -57 100t-150 38q-114 0 -295 -86l144 217q71 14 149 14q275 0 365 -145q43 -70 43 -258v-279q0 -86 6 -111
q12 -51 64 -81q38 -23 114 -25zM886 1133q-143 12 -326 149q-174 -137 -331 -149l331 329z" />
    <glyph glyph-name="uni1EAC" unicode="&#x1eac;" 
d="M886 -294q0 -53 -37.5 -92t-91.5 -39q-55 0 -93 38t-38 93q0 53 39 91t94 38q52 0 89.5 -38t37.5 -91zM1566 0h-448q78 47 78 86q0 25 -37 121l-127 330h-547l-123 -330q-25 -66 -25 -111q0 -55 78 -96h-397q74 47 108.5 98.5t92.5 192.5l381 950q24 62 24 98
q0 52 -65 84h344l454 -1132q52 -129 95 -188.5t114 -102.5zM976 676l-219 565l-221 -565h440zM1136 1550q-149 2 -350 105q-188 -105 -356 -105l356 305z" />
    <glyph glyph-name="uni1EAD" unicode="&#x1ead;" horiz-adv-x="1116" 
d="M1103 127l-94 -141q-143 10 -201.5 48t-72.5 99q-11 37 -11 129v279q-73 -35 -276 -82q-156 -37 -156 -166q0 -82 60.5 -129t169.5 -47q69 0 161 28l-127 -161q-57 -13 -118 -13q-162 0 -256 84q-111 99 -111 240q0 149 121 217q82 45 285 84q143 27 193 57.5t50 89.5
q0 62 -57 100t-150 38q-114 0 -295 -86l144 217q71 14 149 14q275 0 365 -145q43 -70 43 -258v-279q0 -86 6 -111q12 -51 64 -81q38 -23 114 -25zM707 -294q0 -53 -38 -92t-91 -39q-55 0 -93 38t-38 93q0 53 39 91t94 38q51 0 89 -38t38 -91zM886 1133q-143 12 -326 149
q-174 -137 -331 -149l331 329z" />
    <glyph glyph-name="uni1EAE" unicode="&#x1eae;" 
d="M1112 1996l-590 -176l471 336zM1566 0h-448q78 47 78 86q0 25 -37 121l-127 330h-547l-123 -330q-25 -66 -25 -111q0 -55 78 -96h-397q74 47 108.5 98.5t92.5 192.5l381 950q24 62 24 98q0 52 -65 84h344l454 -1132q52 -129 95 -188.5t114 -102.5zM976 676l-219 565
l-221 -565h440zM1085 1806q-31 -98 -70 -152q-90 -118 -264 -118q-207 0 -289 168q-12 25 -34 102h120q70 -140 203 -140q84 0 127 28.5t86 111.5h121z" />
    <glyph glyph-name="uni1EAF" unicode="&#x1eaf;" horiz-adv-x="1116" 
d="M960 1610l-534 -236l405 371zM1103 127l-94 -141q-143 10 -201.5 48t-72.5 99q-11 37 -11 129v279q-73 -35 -276 -82q-156 -37 -156 -166q0 -82 60.5 -129t169.5 -47q69 0 161 28l-127 -161q-57 -13 -118 -13q-162 0 -256 84q-111 99 -111 240q0 149 121 217
q82 45 285 84q143 27 193 57.5t50 89.5q0 62 -57 100t-150 38q-114 0 -295 -86l144 217q71 14 149 14q275 0 365 -145q43 -70 43 -258v-279q0 -86 6 -111q12 -51 64 -81q38 -23 114 -25zM903 1389q-30 -98 -69 -152q-90 -118 -264 -118q-207 0 -289 168q-12 25 -35 102h121
q69 -140 203 -140q84 0 127 28.5t86 111.5h120z" />
    <glyph glyph-name="uni1EB0" unicode="&#x1eb0;" 
d="M952 1819l-590 176l119 160zM1566 0h-448q78 47 78 86q0 25 -37 121l-127 330h-547l-123 -330q-25 -66 -25 -111q0 -55 78 -96h-397q74 47 108.5 98.5t92.5 192.5l381 950q24 62 24 98q0 52 -65 84h344l454 -1132q52 -129 95 -188.5t114 -102.5zM976 676l-219 565
l-221 -565h440zM1085 1806q-31 -98 -70 -152q-90 -118 -264 -118q-207 0 -289 168q-12 25 -34 102h120q70 -140 203 -140q84 0 127 28.5t86 111.5h121z" />
    <glyph glyph-name="uni1EB1" unicode="&#x1eb1;" horiz-adv-x="1116" 
d="M709 1374l-535 236l132 135zM1103 127l-94 -141q-143 10 -201.5 48t-72.5 99q-11 37 -11 129v279q-73 -35 -276 -82q-156 -37 -156 -166q0 -82 60.5 -129t169.5 -47q69 0 161 28l-127 -161q-57 -13 -118 -13q-162 0 -256 84q-111 99 -111 240q0 149 121 217q82 45 285 84
q143 27 193 57.5t50 89.5q0 62 -57 100t-150 38q-114 0 -295 -86l144 217q71 14 149 14q275 0 365 -145q43 -70 43 -258v-279q0 -86 6 -111q12 -51 64 -81q38 -23 114 -25zM903 1389q-30 -98 -69 -152q-90 -118 -264 -118q-207 0 -289 168q-12 25 -35 102h121
q69 -140 203 -140q84 0 127 28.5t86 111.5h120z" />
    <glyph glyph-name="uni1EB2" unicode="&#x1eb2;" 
d="M1566 0h-448q78 47 78 86q0 25 -37 121l-127 330h-547l-123 -330q-25 -66 -25 -111q0 -55 78 -96h-397q74 47 108.5 98.5t92.5 192.5l381 950q24 62 24 98q0 52 -65 84h344l454 -1132q52 -129 95 -188.5t114 -102.5zM976 676l-219 565l-221 -565h440zM1046 2090
q0 -47 -25 -84t-86 -85q-64 -50 -73.5 -61t-9.5 -31q0 -11 10 -47l-127 -13q-9 40 -9 56q0 40 20 70t70 68q81 61 81 109q0 40 -33.5 66t-83.5 26q-42 0 -197 -68l102 146q62 23 117 23q106 0 175 -49.5t69 -125.5zM1085 1806q-31 -98 -70 -152q-90 -118 -264 -118
q-207 0 -289 168q-12 25 -34 102h120q70 -140 203 -140q84 0 127 28.5t86 111.5h121z" />
    <glyph glyph-name="uni1EB3" unicode="&#x1eb3;" horiz-adv-x="1116" 
d="M1103 127l-94 -141q-143 10 -201.5 48t-72.5 99q-11 37 -11 129v279q-73 -35 -276 -82q-156 -37 -156 -166q0 -82 60.5 -129t169.5 -47q69 0 161 28l-127 -161q-57 -13 -118 -13q-162 0 -256 84q-111 99 -111 240q0 149 121 217q82 45 285 84q143 27 193 57.5t50 89.5
q0 62 -57 100t-150 38q-114 0 -295 -86l144 217q71 14 149 14q275 0 365 -145q43 -70 43 -258v-279q0 -86 6 -111q12 -51 64 -81q38 -23 114 -25zM845 1683q0 -47 -25 -84t-86 -85q-64 -50 -73.5 -61t-9.5 -31q0 -11 10 -47l-127 -13q-9 40 -9 56q0 40 20 70t70 68
q81 61 81 109q0 40 -34 66t-83 26q-42 0 -198 -68l103 146q62 23 117 23q106 0 175 -49.5t69 -125.5zM903 1389q-30 -98 -69 -152q-90 -118 -264 -118q-207 0 -289 168q-12 25 -35 102h121q69 -140 203 -140q84 0 127 28.5t86 111.5h120z" />
    <glyph glyph-name="uni1EB4" unicode="&#x1eb4;" 
d="M1234 2119q-8 -26 -27 -75q-33 -93 -59 -125q-49 -60 -139 -60q-52 0 -160 37q-140 47 -205 47q-51 0 -90 -22q-21 -11 -76 -58q47 131 66 162q43 66 127 66q38 0 131 -27q16 -6 141 -41q57 -16 88 -16q70 0 203 112zM1566 0h-448q78 47 78 86q0 25 -37 121l-127 330
h-547l-123 -330q-25 -66 -25 -111q0 -55 78 -96h-397q74 47 108.5 98.5t92.5 192.5l381 950q24 62 24 98q0 52 -65 84h344l454 -1132q52 -129 95 -188.5t114 -102.5zM976 676l-219 565l-221 -565h440zM1085 1806q-31 -98 -70 -152q-90 -118 -264 -118q-207 0 -289 168
q-12 25 -34 102h120q70 -140 203 -140q84 0 127 28.5t86 111.5h121z" />
    <glyph glyph-name="uni1EB5" unicode="&#x1eb5;" horiz-adv-x="1116" 
d="M1002 1696q-49 -242 -194 -242q-56 0 -152 33q-139 47 -182 47q-64 0 -152 -72q35 115 62 152q43 61 108 61q41 0 150 -33q147 -45 172 -45q78 0 188 99zM1103 127l-94 -141q-143 10 -201.5 48t-72.5 99q-11 37 -11 129v279q-73 -35 -276 -82q-156 -37 -156 -166
q0 -82 60.5 -129t169.5 -47q69 0 161 28l-127 -161q-57 -13 -118 -13q-162 0 -256 84q-111 99 -111 240q0 149 121 217q82 45 285 84q143 27 193 57.5t50 89.5q0 62 -57 100t-150 38q-114 0 -295 -86l144 217q71 14 149 14q275 0 365 -145q43 -70 43 -258v-279q0 -86 6 -111
q12 -51 64 -81q38 -23 114 -25zM903 1389q-30 -98 -69 -152q-90 -118 -264 -118q-207 0 -289 168q-12 25 -35 102h121q69 -140 203 -140q84 0 127 28.5t86 111.5h120z" />
    <glyph glyph-name="uni1EB6" unicode="&#x1eb6;" 
d="M886 -294q0 -53 -37.5 -92t-91.5 -39q-55 0 -93 38t-38 93q0 53 39 91t94 38q52 0 89.5 -38t37.5 -91zM1566 0h-448q78 47 78 86q0 25 -37 121l-127 330h-547l-123 -330q-25 -66 -25 -111q0 -55 78 -96h-397q74 47 108.5 98.5t92.5 192.5l381 950q24 62 24 98
q0 52 -65 84h344l454 -1132q52 -129 95 -188.5t114 -102.5zM976 676l-219 565l-221 -565h440zM1085 1806q-31 -98 -70 -152q-90 -118 -264 -118q-207 0 -289 168q-12 25 -34 102h120q70 -140 203 -140q84 0 127 28.5t86 111.5h121z" />
    <glyph glyph-name="uni1EB7" unicode="&#x1eb7;" horiz-adv-x="1116" 
d="M1103 127l-94 -141q-143 10 -201.5 48t-72.5 99q-11 37 -11 129v279q-73 -35 -276 -82q-156 -37 -156 -166q0 -82 60.5 -129t169.5 -47q69 0 161 28l-127 -161q-57 -13 -118 -13q-162 0 -256 84q-111 99 -111 240q0 149 121 217q82 45 285 84q143 27 193 57.5t50 89.5
q0 62 -57 100t-150 38q-114 0 -295 -86l144 217q71 14 149 14q275 0 365 -145q43 -70 43 -258v-279q0 -86 6 -111q12 -51 64 -81q38 -23 114 -25zM707 -294q0 -53 -38 -92t-91 -39q-55 0 -93 38t-38 93q0 53 39 91t94 38q51 0 89 -38t38 -91zM903 1389q-30 -98 -69 -152
q-90 -118 -264 -118q-207 0 -289 168q-12 25 -35 102h121q69 -140 203 -140q84 0 127 28.5t86 111.5h120z" />
    <glyph glyph-name="uni1EB8" unicode="&#x1eb8;" horiz-adv-x="1126" 
d="M1107 283l-100 -283h-901q70 37 88 121q8 39 8 158v868q0 117 -8 156q-18 83 -88 120h719q47 0 82 13v-252q-58 55 -121 71q-47 15 -143 15q-136 0 -224 -15v-403h289q43 0 74 14v-229q-45 59 -170 59h-193v-514q138 -22 267 -22q258 0 421 123zM695 -294q0 -53 -38 -92
t-91 -39q-55 0 -93 38t-38 93q0 53 39 91t94 38q51 0 89 -38t38 -91z" />
    <glyph glyph-name="uni1EB9" unicode="&#x1eb9;" horiz-adv-x="1191" 
d="M1109 229l-117 -206q-133 -52 -299 -52q-270 0 -441 147.5t-171 381.5q0 241 176 401q137 125 361 125q213 0 352 -133t139 -338v-35h-795q9 -188 123.5 -295.5t309.5 -107.5q202 0 362 112zM882 655q-45 240 -275 240q-233 0 -284 -240h559zM725 -294q0 -53 -38 -92
t-91 -39q-56 0 -93.5 38t-37.5 93q0 53 38.5 91t94.5 38q51 0 89 -38t38 -91z" />
    <glyph glyph-name="uni1EBA" unicode="&#x1eba;" horiz-adv-x="1126" 
d="M1107 283l-100 -283h-901q70 37 88 121q8 39 8 158v868q0 117 -8 156q-18 83 -88 120h719q47 0 82 13v-252q-58 55 -121 71q-47 15 -143 15q-136 0 -224 -15v-403h289q43 0 74 14v-229q-45 59 -170 59h-193v-514q138 -22 267 -22q258 0 421 123zM820 1810
q0 -47 -24.5 -84t-85.5 -85q-65 -50 -74 -61t-9 -31q0 -11 10 -47l-127 -13q-10 40 -10 56q0 40 20.5 70t70.5 68q80 61 80 109q0 40 -33.5 66t-83.5 26q-41 0 -197 -68l103 146q62 23 117 23q105 0 174 -49.5t69 -125.5z" />
    <glyph glyph-name="uni1EBB" unicode="&#x1ebb;" horiz-adv-x="1191" 
d="M1109 229l-117 -206q-133 -52 -299 -52q-270 0 -441 147.5t-171 381.5q0 241 176 401q137 125 361 125q213 0 352 -133t139 -338v-35h-795q9 -188 123.5 -295.5t309.5 -107.5q202 0 362 112zM882 655q-45 240 -275 240q-233 0 -284 -240h559zM863 1439q0 -47 -24.5 -84
t-85.5 -85q-64 -50 -73.5 -61t-9.5 -31q0 -11 10 -47l-127 -13q-10 40 -10 56q0 40 20.5 70t70.5 68q80 61 80 109q0 40 -33.5 66t-83.5 26q-41 0 -197 -68l103 146q62 23 117 23q105 0 174 -49.5t69 -125.5z" />
    <glyph glyph-name="uni1EBC" unicode="&#x1ebc;" horiz-adv-x="1126" 
d="M1107 283l-100 -283h-901q70 37 88 121q8 39 8 158v868q0 117 -8 156q-18 83 -88 120h719q47 0 82 13v-252q-58 55 -121 71q-47 15 -143 15q-136 0 -224 -15v-403h289q43 0 74 14v-229q-45 59 -170 59h-193v-514q138 -22 267 -22q258 0 421 123zM961 1847q-8 -26 -26 -75
q-33 -93 -60 -125q-49 -60 -139 -60q-51 0 -160 37q-139 47 -205 47q-51 0 -90 -22q-20 -11 -75 -58q47 131 65 162q43 66 127 66q39 0 131 -27q17 -6 141 -41q58 -16 89 -16q69 0 202 112z" />
    <glyph glyph-name="uni1EBD" unicode="&#x1ebd;" horiz-adv-x="1191" 
d="M1109 229l-117 -206q-133 -52 -299 -52q-270 0 -441 147.5t-171 381.5q0 241 176 401q137 125 361 125q213 0 352 -133t139 -338v-35h-795q9 -188 123.5 -295.5t309.5 -107.5q202 0 362 112zM882 655q-45 240 -275 240q-233 0 -284 -240h559zM1012 1434
q-49 -242 -195 -242q-55 0 -151 33q-139 47 -182 47q-64 0 -152 -72q35 115 62 152q43 61 108 61q41 0 150 -33q147 -45 172 -45q77 0 188 99z" />
    <glyph glyph-name="uni1EBE" unicode="&#x1ebe;" horiz-adv-x="1126" 
d="M869 1987l-590 -176l471 336zM1107 283l-100 -283h-901q70 37 88 121q8 39 8 158v868q0 117 -8 156q-18 83 -88 120h719q47 0 82 13v-252q-58 55 -121 71q-47 15 -143 15q-136 0 -224 -15v-403h289q43 0 74 14v-229q-45 59 -170 59h-193v-514q138 -22 267 -22
q258 0 421 123zM915 1550q-150 2 -350 105q-189 -105 -357 -105l357 305z" />
    <glyph glyph-name="uni1EBF" unicode="&#x1ebf;" horiz-adv-x="1191" 
d="M880 1619l-534 -236l405 371zM1109 229l-117 -206q-133 -52 -299 -52q-270 0 -441 147.5t-171 381.5q0 241 176 401q137 125 361 125q213 0 352 -133t139 -338v-35h-795q9 -188 123.5 -295.5t309.5 -107.5q202 0 362 112zM882 655q-45 240 -275 240q-233 0 -284 -240h559
zM951 1133q-143 12 -325 149q-174 -137 -332 -149l332 329z" />
    <glyph glyph-name="uni1EC0" unicode="&#x1ec0;" horiz-adv-x="1126" 
d="M895 1793l-590 176l119 160zM1107 283l-100 -283h-901q70 37 88 121q8 39 8 158v868q0 117 -8 156q-18 83 -88 120h719q47 0 82 13v-252q-58 55 -121 71q-47 15 -143 15q-136 0 -224 -15v-403h289q43 0 74 14v-229q-45 59 -170 59h-193v-514q138 -22 267 -22
q258 0 421 123zM915 1550q-150 2 -350 105q-189 -105 -357 -105l357 305z" />
    <glyph glyph-name="uni1EC1" unicode="&#x1ec1;" horiz-adv-x="1191" 
d="M909 1365l-534 236l129 135zM1124 229l-117 -206q-133 -52 -299 -52q-270 0 -441 147.5t-171 381.5q0 241 176 401q137 125 359 125q213 0 353 -133t140 -338v-35h-795q9 -188 123.5 -295.5t309.5 -107.5q202 0 362 112zM882 655q-45 242 -274 242q-231 0 -285 -242h559z
M952 1133q-143 12 -326 149q-174 -137 -331 -149l331 329z" />
    <glyph glyph-name="uni1EC2" unicode="&#x1ec2;" horiz-adv-x="1126" 
d="M1107 283l-100 -283h-901q70 37 88 121q8 39 8 158v868q0 117 -8 156q-18 83 -88 120h719q47 0 82 13v-252q-58 55 -121 71q-47 15 -143 15q-136 0 -224 -15v-403h289q43 0 74 14v-229q-45 59 -170 59h-193v-514q138 -22 267 -22q258 0 421 123zM1092 2027
q0 -47 -24.5 -84t-85.5 -85q-65 -50 -74 -61t-9 -31q0 -11 10 -47l-127 -13q-10 40 -10 56q0 40 20.5 70t70.5 68q80 61 80 109q0 40 -33.5 66t-83.5 26q-41 0 -197 -68l103 146q62 23 117 23q105 0 174 -49.5t69 -125.5zM915 1550q-150 2 -350 105q-189 -105 -357 -105
l357 305z" />
    <glyph glyph-name="uni1EC3" unicode="&#x1ec3;" horiz-adv-x="1191" 
d="M1109 229l-117 -206q-133 -52 -299 -52q-270 0 -441 147.5t-171 381.5q0 241 176 401q137 125 361 125q213 0 352 -133t139 -338v-35h-795q9 -188 123.5 -295.5t309.5 -107.5q202 0 362 112zM882 655q-45 240 -275 240q-233 0 -284 -240h559zM1134 1647q0 -47 -24.5 -84
t-85.5 -85q-64 -50 -73.5 -61t-9.5 -31q0 -11 10 -47l-127 -13q-10 40 -10 56q0 40 20.5 70t70.5 68q80 61 80 109q0 40 -33.5 66t-83.5 26q-41 0 -197 -68l103 146q62 23 117 23q105 0 174 -49.5t69 -125.5zM951 1133q-143 12 -325 149q-174 -137 -332 -149l332 329z" />
    <glyph glyph-name="uni1EC4" unicode="&#x1ec4;" horiz-adv-x="1126" 
d="M1107 283l-100 -283h-901q70 37 88 121q8 39 8 158v868q0 117 -8 156q-18 83 -88 120h719q47 0 82 13v-252q-58 55 -121 71q-47 15 -143 15q-136 0 -224 -15v-403h289q43 0 74 14v-229q-45 59 -170 59h-193v-514q138 -22 267 -22q258 0 421 123zM1043 2091
q-8 -26 -26 -75q-33 -93 -60 -125q-49 -60 -139 -60q-51 0 -160 37q-139 47 -205 47q-51 0 -90 -22q-20 -11 -75 -58q47 131 65 162q43 66 127 66q39 0 131 -27q17 -6 141 -41q58 -16 89 -16q69 0 202 112zM915 1550q-150 2 -350 105q-189 -105 -357 -105l357 305z" />
    <glyph glyph-name="uni1EC5" unicode="&#x1ec5;" horiz-adv-x="1191" 
d="M1109 229l-117 -206q-133 -52 -299 -52q-270 0 -441 147.5t-171 381.5q0 241 176 401q137 125 361 125q213 0 352 -133t139 -338v-35h-795q9 -188 123.5 -295.5t309.5 -107.5q202 0 362 112zM882 655q-45 240 -275 240q-233 0 -284 -240h559zM1066 1705
q-49 -242 -195 -242q-55 0 -151 33q-139 47 -182 47q-64 0 -152 -72q35 115 62 152q43 61 108 61q41 0 150 -33q147 -45 172 -45q77 0 188 99zM951 1133q-143 12 -325 149q-174 -137 -332 -149l332 329z" />
    <glyph glyph-name="uni1EC6" unicode="&#x1ec6;" horiz-adv-x="1126" 
d="M1107 283l-100 -283h-901q70 37 88 121q8 39 8 158v868q0 117 -8 156q-18 83 -88 120h719q47 0 82 13v-252q-58 55 -121 71q-47 15 -143 15q-136 0 -224 -15v-403h289q43 0 74 14v-229q-45 59 -170 59h-193v-514q138 -22 267 -22q258 0 421 123zM695 -294q0 -53 -38 -92
t-91 -39q-55 0 -93 38t-38 93q0 53 39 91t94 38q51 0 89 -38t38 -91zM915 1550q-150 2 -350 105q-189 -105 -357 -105l357 305z" />
    <glyph glyph-name="uni1EC7" unicode="&#x1ec7;" horiz-adv-x="1191" 
d="M1109 229l-117 -206q-133 -52 -299 -52q-270 0 -441 147.5t-171 381.5q0 241 176 401q137 125 361 125q213 0 352 -133t139 -338v-35h-795q9 -188 123.5 -295.5t309.5 -107.5q202 0 362 112zM882 655q-45 240 -275 240q-233 0 -284 -240h559zM725 -294q0 -53 -38 -92
t-91 -39q-56 0 -93.5 38t-37.5 93q0 53 38.5 91t94.5 38q51 0 89 -38t38 -91zM951 1133q-143 12 -325 149q-174 -137 -332 -149l332 329z" />
    <glyph glyph-name="uni1EC8" unicode="&#x1ec8;" horiz-adv-x="622" 
d="M516 0h-410q70 37 88 121q8 37 8 155v871q0 119 -8 156q-18 83 -88 120h410q-70 -37 -88 -120q-9 -37 -9 -156v-871q0 -118 9 -155q18 -84 88 -121zM575 1810q0 -47 -24.5 -84t-85.5 -85q-65 -50 -74 -61t-9 -31q0 -11 10 -47l-127 -13q-10 40 -10 56q0 40 20.5 70
t70.5 68q80 61 80 109q0 40 -33.5 66t-83.5 26q-41 0 -197 -68l103 146q62 23 117 23q105 0 174 -49.5t69 -125.5z" />
    <glyph glyph-name="uni1EC9" unicode="&#x1ec9;" horiz-adv-x="524" 
d="M444 0h-358q57 45 69.5 77t12.5 136v571q0 105 -12.5 136.5t-69.5 76.5h149q89 0 127 41v-825q0 -104 12.5 -136t69.5 -77zM511 1439q0 -47 -24.5 -84t-85.5 -85q-65 -50 -74 -61t-9 -31q0 -11 10 -47l-127 -13q-10 40 -10 56q0 40 20.5 70t69.5 68q81 61 81 109
q0 40 -33.5 66t-83.5 26q-41 0 -197 -68l103 146q62 23 117 23q105 0 174 -49.5t69 -125.5z" />
    <glyph glyph-name="uni1ECA" unicode="&#x1eca;" horiz-adv-x="622" 
d="M516 0h-410q70 37 88 121q8 37 8 155v871q0 119 -8 156q-18 83 -88 120h410q-70 -37 -88 -120q-9 -37 -9 -156v-871q0 -118 9 -155q18 -84 88 -121zM441 -294q0 -53 -38 -92t-91 -39q-55 0 -93 38t-38 93q0 53 39 91t94 38q51 0 89 -38t38 -91z" />
    <glyph glyph-name="uni1ECB" unicode="&#x1ecb;" horiz-adv-x="524" 
d="M395 1264q0 -58 -39 -97t-96 -39q-55 0 -94 39t-39 97q0 55 40 94t97 39q53 0 92 -40t39 -93zM444 0h-358q57 45 69.5 77t12.5 136v571q0 105 -12.5 136.5t-69.5 76.5h150q88 0 126 41v-825q0 -104 12.5 -136t69.5 -77zM400 -294q0 -53 -38 -92t-91 -39q-56 0 -94 38
t-38 93q0 53 39 91t95 38q51 0 89 -38t38 -91z" />
    <glyph glyph-name="uni1ECC" unicode="&#x1ecc;" horiz-adv-x="1753" 
d="M1668 721q0 -318 -232.5 -537t-566.5 -219q-329 0 -558.5 215t-229.5 525q0 321 234.5 538t582.5 217q332 0 551 -213q102 -98 160.5 -239.5t58.5 -286.5zM1422 688q0 250 -147 428q-156 189 -408 189q-237 0 -389.5 -157t-152.5 -407q0 -266 174 -458q145 -162 379 -162
q243 0 393.5 156.5t150.5 410.5zM1005 -294q0 -53 -38 -92t-91 -39q-56 0 -93.5 38t-37.5 93q0 53 38.5 91t94.5 38q51 0 89 -38t38 -91z" />
    <glyph glyph-name="uni1ECD" unicode="&#x1ecd;" horiz-adv-x="1292" 
d="M1209 506q0 -225 -165.5 -380t-409.5 -155q-238 0 -395.5 148.5t-157.5 374.5q0 258 203 413q155 119 383 119q223 0 375 -139q167 -156 167 -381zM988 475q0 182 -98 294t-258 112q-145 0 -237.5 -100.5t-92.5 -260.5q0 -174 99.5 -288.5t250.5 -114.5q150 0 243 99
t93 259zM775 -294q0 -53 -38 -92t-91 -39q-55 0 -93 38t-38 93q0 53 39 91t94 38q51 0 89 -38t38 -91z" />
    <glyph glyph-name="uni1ECE" unicode="&#x1ece;" horiz-adv-x="1753" 
d="M1668 721q0 -318 -232.5 -537t-566.5 -219q-329 0 -558.5 215t-229.5 525q0 321 234.5 538t582.5 217q332 0 551 -213q102 -98 160.5 -239.5t58.5 -286.5zM1422 688q0 250 -147 428q-156 189 -408 189q-237 0 -389.5 -157t-152.5 -407q0 -266 174 -458q145 -162 379 -162
q243 0 393.5 156.5t150.5 410.5zM1099 1838q0 -47 -24.5 -84t-85.5 -85q-64 -50 -73.5 -61t-9.5 -31q0 -11 10 -47l-127 -13q-10 40 -10 56q0 40 20.5 70t70.5 68q80 61 80 109q0 40 -33.5 66t-83.5 26q-41 0 -197 -68l103 146q62 23 117 23q105 0 174 -49.5t69 -125.5z" />
    <glyph glyph-name="uni1ECF" unicode="&#x1ecf;" horiz-adv-x="1292" 
d="M1209 506q0 -225 -165.5 -380t-409.5 -155q-238 0 -395.5 148.5t-157.5 374.5q0 258 203 413q155 119 383 119q223 0 375 -139q167 -156 167 -381zM988 475q0 182 -98 294t-258 112q-145 0 -237.5 -100.5t-92.5 -260.5q0 -174 99.5 -288.5t250.5 -114.5q150 0 243 99
t93 259zM863 1439q0 -47 -24.5 -84t-85.5 -85q-64 -50 -73.5 -61t-9.5 -31q0 -11 10 -47l-127 -13q-10 40 -10 56q0 40 20.5 70t70.5 68q80 61 80 109q0 40 -33.5 66t-83.5 26q-41 0 -197 -68l103 146q62 23 117 23q105 0 174 -49.5t69 -125.5z" />
    <glyph glyph-name="uni1ED0" unicode="&#x1ed0;" horiz-adv-x="1753" 
d="M1198 1986l-590 -176l471 336zM1668 721q0 -318 -232.5 -537t-566.5 -219q-329 0 -558.5 215t-229.5 525q0 321 234.5 538t582.5 217q332 0 551 -213q102 -98 160.5 -239.5t58.5 -286.5zM1422 688q0 250 -147 428q-156 189 -408 189q-237 0 -389.5 -157t-152.5 -407
q0 -266 174 -458q145 -162 379 -162q243 0 393.5 156.5t150.5 410.5zM1228 1550q-150 2 -350 105q-189 -105 -357 -105l357 305z" />
    <glyph glyph-name="uni1ED1" unicode="&#x1ed1;" horiz-adv-x="1292" 
d="M920 1619l-534 -236l405 371zM1209 506q0 -225 -165.5 -380t-409.5 -155q-238 0 -395.5 148.5t-157.5 374.5q0 258 203 413q155 119 383 119q223 0 375 -139q167 -156 167 -381zM988 475q0 182 -98 294t-258 112q-145 0 -237.5 -100.5t-92.5 -260.5q0 -174 99.5 -288.5
t250.5 -114.5q150 0 243 99t93 259zM974 1133q-143 12 -326 149q-174 -137 -331 -149l331 329z" />
    <glyph glyph-name="uni1ED2" unicode="&#x1ed2;" horiz-adv-x="1753" 
d="M1216 1792l-590 176l119 160zM1668 721q0 -318 -232.5 -537t-566.5 -219q-329 0 -558.5 215t-229.5 525q0 321 234.5 538t582.5 217q332 0 551 -213q102 -98 160.5 -239.5t58.5 -286.5zM1422 688q0 250 -147 428q-156 189 -408 189q-237 0 -389.5 -157t-152.5 -407
q0 -266 174 -458q145 -162 379 -162q243 0 393.5 156.5t150.5 410.5zM1228 1550q-150 2 -350 105q-189 -105 -357 -105l357 305z" />
    <glyph glyph-name="uni1ED3" unicode="&#x1ed3;" horiz-adv-x="1292" 
d="M925 1383l-535 236l131 135zM1209 506q0 -225 -165.5 -380t-409.5 -155q-238 0 -395.5 148.5t-157.5 374.5q0 258 203 413q155 119 383 119q223 0 375 -139q167 -156 167 -381zM988 475q0 182 -98 294t-258 112q-145 0 -237.5 -100.5t-92.5 -260.5q0 -174 99.5 -288.5
t250.5 -114.5q150 0 243 99t93 259zM974 1133q-143 12 -326 149q-174 -137 -331 -149l331 329z" />
    <glyph glyph-name="uni1ED4" unicode="&#x1ed4;" horiz-adv-x="1753" 
d="M1668 721q0 -318 -232.5 -537t-566.5 -219q-329 0 -558.5 215t-229.5 525q0 321 234.5 538t582.5 217q332 0 551 -213q102 -98 160.5 -239.5t58.5 -286.5zM1422 688q0 250 -147 428q-156 189 -408 189q-237 0 -389.5 -157t-152.5 -407q0 -266 174 -458q145 -162 379 -162
q243 0 393.5 156.5t150.5 410.5zM1398 2029q0 -47 -24.5 -84t-85.5 -85q-64 -50 -73.5 -61t-9.5 -31q0 -11 10 -47l-127 -13q-10 40 -10 56q0 40 20.5 70t70.5 68q80 61 80 109q0 40 -33.5 66t-83.5 26q-41 0 -197 -68l103 146q62 23 117 23q105 0 174 -49.5t69 -125.5z
M1228 1550q-150 2 -350 105q-189 -105 -357 -105l357 305z" />
    <glyph glyph-name="uni1ED5" unicode="&#x1ed5;" horiz-adv-x="1292" 
d="M1209 506q0 -225 -165.5 -380t-409.5 -155q-238 0 -395.5 148.5t-157.5 374.5q0 258 203 413q155 119 383 119q223 0 375 -139q167 -156 167 -381zM988 475q0 182 -98 294t-258 112q-145 0 -237.5 -100.5t-92.5 -260.5q0 -174 99.5 -288.5t250.5 -114.5q150 0 243 99
t93 259zM1162 1639q0 -47 -24.5 -84t-85.5 -85q-64 -50 -73.5 -61t-9.5 -31q0 -11 10 -47l-127 -13q-10 40 -10 56q0 40 20.5 70t70.5 68q80 61 80 109q0 40 -33.5 66t-83.5 26q-41 0 -197 -68l103 146q62 23 117 23q105 0 174 -49.5t69 -125.5zM974 1133q-143 12 -326 149
q-174 -137 -331 -149l331 329z" />
    <glyph glyph-name="uni1ED6" unicode="&#x1ed6;" horiz-adv-x="1753" 
d="M1382 2100q-8 -26 -27 -75q-32 -93 -59 -125q-49 -60 -139 -60q-52 0 -160 37q-139 47 -205 47q-51 0 -90 -22q-20 -11 -76 -58q47 131 66 162q43 66 127 66q39 0 131 -27q16 -6 141 -41q57 -16 88 -16q70 0 203 112zM1668 721q0 -318 -232.5 -537t-566.5 -219
q-329 0 -558.5 215t-229.5 525q0 321 234.5 538t582.5 217q332 0 551 -213q102 -98 160.5 -239.5t58.5 -286.5zM1422 688q0 250 -147 428q-156 189 -408 189q-237 0 -389.5 -157t-152.5 -407q0 -266 174 -458q145 -162 379 -162q243 0 393.5 156.5t150.5 410.5zM1228 1550
q-150 2 -350 105q-189 -105 -357 -105l357 305z" />
    <glyph glyph-name="uni1ED7" unicode="&#x1ed7;" horiz-adv-x="1292" 
d="M1072 1697q-50 -242 -195 -242q-55 0 -152 33q-139 47 -182 47q-63 0 -151 -72q34 115 61 152q43 61 109 61q41 0 149 -33q148 -45 172 -45q78 0 189 99zM1209 506q0 -225 -165.5 -380t-409.5 -155q-238 0 -395.5 148.5t-157.5 374.5q0 258 203 413q155 119 383 119
q223 0 375 -139q167 -156 167 -381zM988 475q0 182 -98 294t-258 112q-145 0 -237.5 -100.5t-92.5 -260.5q0 -174 99.5 -288.5t250.5 -114.5q150 0 243 99t93 259zM974 1133q-143 12 -326 149q-174 -137 -331 -149l331 329z" />
    <glyph glyph-name="uni1ED8" unicode="&#x1ed8;" horiz-adv-x="1753" 
d="M1668 721q0 -318 -232.5 -537t-566.5 -219q-329 0 -558.5 215t-229.5 525q0 321 234.5 538t582.5 217q332 0 551 -213q102 -98 160.5 -239.5t58.5 -286.5zM1422 688q0 250 -147 428q-156 189 -408 189q-237 0 -389.5 -157t-152.5 -407q0 -266 174 -458q145 -162 379 -162
q243 0 393.5 156.5t150.5 410.5zM1005 -294q0 -53 -38 -92t-91 -39q-56 0 -93.5 38t-37.5 93q0 53 38.5 91t94.5 38q51 0 89 -38t38 -91zM1228 1550q-150 2 -350 105q-189 -105 -357 -105l357 305z" />
    <glyph glyph-name="uni1ED9" unicode="&#x1ed9;" horiz-adv-x="1292" 
d="M1209 506q0 -225 -165.5 -380t-409.5 -155q-238 0 -395.5 148.5t-157.5 374.5q0 258 203 413q155 119 383 119q223 0 375 -139q167 -156 167 -381zM988 475q0 182 -98 294t-258 112q-145 0 -237.5 -100.5t-92.5 -260.5q0 -174 99.5 -288.5t250.5 -114.5q150 0 243 99
t93 259zM775 -294q0 -53 -38 -92t-91 -39q-55 0 -93 38t-38 93q0 53 39 91t94 38q51 0 89 -38t38 -91zM974 1133q-143 12 -326 149q-174 -137 -331 -149l331 329z" />
    <glyph glyph-name="uni1EDA" unicode="&#x1eda;" horiz-adv-x="1753" 
d="M1297 1714l-589 -176l471 336zM1422 688q0 250 -147 428q-156 189 -408 189q-237 0 -389.5 -157t-152.5 -407q0 -266 174 -458q145 -162 379 -162q243 0 393.5 156.5t150.5 410.5zM1450 1246q101 -98 160 -238q58 -142 58 -287q0 -318 -232.5 -537t-566.5 -219
q-329 0 -558.5 215t-229.5 525q0 321 234.5 538t582.5 217q287 0 489 -159q82 33 96 74q6 13 -29 43q-68 58 -29 141q22 46 72 63t99 -6q53 -25 69 -79.5t-12 -113.5q-53 -113 -203 -177z" />
    <glyph glyph-name="uni1EDB" unicode="&#x1edb;" horiz-adv-x="1292" 
d="M1029 1356l-534 -236l405 371zM988 475q0 182 -98 294t-258 112q-146 0 -238 -100.5t-92 -260.5q0 -174 99.5 -288.5t250.5 -114.5q150 0 243 99t93 259zM1091 835q118 -140 118 -329q0 -225 -165.5 -380t-409.5 -155q-238 0 -395.5 148.5t-157.5 374.5q0 258 203 413
q155 119 383 119q217 0 366 -132q34 22 43 47q6 13 -29 43q-68 58 -29 141q22 46 72 63t99 -6q53 -25 69 -79.5t-12 -113.5q-44 -94 -155 -154z" />
    <glyph glyph-name="uni1EDC" unicode="&#x1edc;" horiz-adv-x="1753" 
d="M1062 1538l-590 176l119 160zM1422 688q0 250 -147 428q-156 189 -408 189q-237 0 -389.5 -157t-152.5 -407q0 -266 174 -458q145 -162 379 -162q243 0 393.5 156.5t150.5 410.5zM1450 1246q101 -98 160 -238q58 -142 58 -287q0 -318 -232.5 -537t-566.5 -219
q-329 0 -558.5 215t-229.5 525q0 321 234.5 538t582.5 217q287 0 489 -159q82 33 96 74q6 13 -29 43q-68 58 -29 141q22 46 72 63t99 -6q53 -25 69 -79.5t-12 -113.5q-53 -113 -203 -177z" />
    <glyph glyph-name="uni1EDD" unicode="&#x1edd;" horiz-adv-x="1292" 
d="M798 1120l-535 236l131 135zM988 475q0 182 -98 294t-258 112q-146 0 -238 -100.5t-92 -260.5q0 -174 99.5 -288.5t250.5 -114.5q150 0 243 99t93 259zM1091 835q118 -140 118 -329q0 -225 -165.5 -380t-409.5 -155q-238 0 -395.5 148.5t-157.5 374.5q0 258 203 413
q155 119 383 119q217 0 366 -132q34 22 43 47q6 13 -29 43q-68 58 -29 141q22 46 72 63t99 -6q53 -25 69 -79.5t-12 -113.5q-44 -94 -155 -154z" />
    <glyph glyph-name="uni1EDE" unicode="&#x1ede;" horiz-adv-x="1753" 
d="M1422 688q0 250 -147 428q-156 189 -408 189q-237 0 -389.5 -157t-152.5 -407q0 -266 174 -458q145 -162 379 -162q243 0 393.5 156.5t150.5 410.5zM1099 1838q0 -47 -24.5 -84t-85.5 -85q-65 -50 -74 -61t-9 -31q0 -11 10 -47l-127 -13q-10 40 -10 56q0 40 20.5 70
t70.5 68q80 61 80 109q0 40 -33.5 66t-83.5 26q-41 0 -197 -68l103 146q62 23 117 23q105 0 174 -49.5t69 -125.5zM1450 1246q101 -98 160 -238q58 -142 58 -287q0 -318 -232.5 -537t-566.5 -219q-329 0 -558.5 215t-229.5 525q0 321 234.5 538t582.5 217q287 0 489 -159
q82 33 96 74q6 13 -29 43q-68 58 -29 141q22 46 72 63t99 -6q53 -25 69 -79.5t-12 -113.5q-53 -113 -203 -177z" />
    <glyph glyph-name="uni1EDF" unicode="&#x1edf;" horiz-adv-x="1292" 
d="M988 475q0 182 -98 294t-258 112q-146 0 -238 -100.5t-92 -260.5q0 -174 99.5 -288.5t250.5 -114.5q150 0 243 99t93 259zM863 1439q0 -47 -24.5 -84t-85.5 -85q-65 -50 -74 -61t-9 -31q0 -11 10 -47l-127 -13q-10 40 -10 56q0 40 20.5 70t70.5 68q80 61 80 109
q0 40 -33.5 66t-83.5 26q-41 0 -197 -68l103 146q62 23 117 23q105 0 174 -49.5t69 -125.5zM1091 835q118 -140 118 -329q0 -225 -165.5 -380t-409.5 -155q-238 0 -395.5 148.5t-157.5 374.5q0 258 203 413q155 119 383 119q217 0 366 -132q34 22 43 47q6 13 -29 43
q-68 58 -29 141q22 46 72 63t99 -6q53 -25 69 -79.5t-12 -113.5q-44 -94 -155 -154z" />
    <glyph glyph-name="uni1EE0" unicode="&#x1ee0;" horiz-adv-x="1753" 
d="M1273 1847q-8 -26 -27 -75q-33 -93 -59 -125q-49 -60 -139 -60q-52 0 -160 37q-139 47 -205 47q-51 0 -90 -22q-21 -11 -76 -58q47 131 66 162q43 66 127 66q39 0 131 -27q16 -6 141 -41q57 -16 88 -16q70 0 203 112zM1422 688q0 250 -147 428q-156 189 -408 189
q-237 0 -389.5 -157t-152.5 -407q0 -266 174 -458q145 -162 379 -162q243 0 393.5 156.5t150.5 410.5zM1450 1246q101 -98 160 -238q58 -142 58 -287q0 -318 -232.5 -537t-566.5 -219q-329 0 -558.5 215t-229.5 525q0 321 234.5 538t582.5 217q287 0 489 -159q82 33 96 74
q6 13 -29 43q-68 58 -29 141q22 46 72 63t99 -6q53 -25 69 -79.5t-12 -113.5q-53 -113 -203 -177z" />
    <glyph glyph-name="uni1EE1" unicode="&#x1ee1;" horiz-adv-x="1292" 
d="M998 1434q-49 -242 -194 -242q-55 0 -152 33q-139 47 -182 47q-63 0 -152 -72q35 115 62 152q43 61 108 61q41 0 150 -33q147 -45 172 -45q78 0 188 99zM988 475q0 182 -98 294t-258 112q-146 0 -238 -100.5t-92 -260.5q0 -174 99.5 -288.5t250.5 -114.5q150 0 243 99
t93 259zM1091 835q118 -140 118 -329q0 -225 -165.5 -380t-409.5 -155q-238 0 -395.5 148.5t-157.5 374.5q0 258 203 413q155 119 383 119q217 0 366 -132q34 22 43 47q6 13 -29 43q-68 58 -29 141q22 46 72 63t99 -6q53 -25 69 -79.5t-12 -113.5q-44 -94 -155 -154z" />
    <glyph glyph-name="uni1EE2" unicode="&#x1ee2;" horiz-adv-x="1753" 
d="M1422 688q0 250 -147 428q-156 189 -408 189q-237 0 -389.5 -157t-152.5 -407q0 -266 174 -458q145 -162 379 -162q243 0 393.5 156.5t150.5 410.5zM1005 -294q0 -53 -38 -92t-91 -39q-56 0 -94 38t-38 93q0 53 39 91t95 38q51 0 89 -38t38 -91zM1450 1246
q101 -98 160 -238q58 -142 58 -287q0 -318 -232.5 -537t-566.5 -219q-329 0 -558.5 215t-229.5 525q0 321 234.5 538t582.5 217q287 0 489 -159q82 33 96 74q6 13 -29 43q-68 58 -29 141q22 46 72 63t99 -6q53 -25 69 -79.5t-12 -113.5q-53 -113 -203 -177z" />
    <glyph glyph-name="uni1EE3" unicode="&#x1ee3;" horiz-adv-x="1292" 
d="M988 475q0 182 -98 294t-258 112q-146 0 -238 -100.5t-92 -260.5q0 -174 99.5 -288.5t250.5 -114.5q150 0 243 99t93 259zM775 -294q0 -53 -38 -92t-91 -39q-55 0 -93 38t-38 93q0 53 39 91t94 38q51 0 89 -38t38 -91zM1091 835q118 -140 118 -329q0 -225 -165.5 -380
t-409.5 -155q-238 0 -395.5 148.5t-157.5 374.5q0 258 203 413q155 119 383 119q217 0 366 -132q34 22 43 47q6 13 -29 43q-68 58 -29 141q22 46 72 63t99 -6q53 -25 69 -79.5t-12 -113.5q-44 -94 -155 -154z" />
    <glyph glyph-name="uni1EE4" unicode="&#x1ee4;" horiz-adv-x="1540" 
d="M1433 0h-305v150q-154 -185 -428 -185q-170 0 -297 76q-141 84 -186 235q-21 74 -21 242v629q0 119 -8 156q-18 83 -88 120h410q-70 -39 -88 -120q-9 -39 -9 -156v-629q0 -186 76 -276q100 -119 275 -119q206 0 315 153q41 62 41 168v703q0 117 -8 156q-19 81 -88 120
h409q-69 -39 -88 -120q-8 -39 -8 -156v-871q0 -116 8 -155q19 -82 88 -121zM915 -294q0 -53 -38 -92t-91 -39q-55 0 -93 38t-38 93q0 53 39 91t94 38q51 0 89 -38t38 -91z" />
    <glyph glyph-name="uni1EE5" unicode="&#x1ee5;" horiz-adv-x="1206" 
d="M1126 0h-269v141q-78 -98 -143.5 -134t-169.5 -36q-223 0 -324 152q-61 92 -61 274v387q0 105 -12.5 136.5t-69.5 76.5h147q91 0 129 41v-602q0 -149 54 -215q65 -82 192 -82q113 0 181.5 71t68.5 187v387q0 105 -12 137.5t-70 75.5h152q86 0 125 41v-825q0 -104 12 -136
t70 -77zM775 -294q0 -53 -37.5 -92t-91.5 -39q-55 0 -93 38t-38 93q0 53 39 91t94 38q52 0 89.5 -38t37.5 -91z" />
    <glyph glyph-name="uni1EE6" unicode="&#x1ee6;" horiz-adv-x="1540" 
d="M1433 0h-305v150q-154 -185 -428 -185q-170 0 -297 76q-141 84 -186 235q-21 74 -21 242v629q0 119 -8 156q-18 83 -88 120h410q-70 -39 -88 -120q-9 -39 -9 -156v-629q0 -186 76 -276q100 -119 275 -119q206 0 315 153q41 62 41 168v703q0 117 -8 156q-19 81 -88 120
h409q-69 -39 -88 -120q-8 -39 -8 -156v-871q0 -116 8 -155q19 -82 88 -121zM1046 1838q0 -47 -25 -84t-85 -85q-65 -50 -74 -61t-9 -31q0 -11 9 -47l-127 -13q-9 40 -9 56q0 40 20 70t70 68q81 61 81 109q0 40 -33.5 66t-83.5 26q-42 0 -197 -68l103 146q62 23 116 23
q106 0 175 -49.5t69 -125.5z" />
    <glyph glyph-name="uni1EE7" unicode="&#x1ee7;" horiz-adv-x="1206" 
d="M1126 0h-269v141q-78 -98 -143.5 -134t-169.5 -36q-223 0 -324 152q-61 92 -61 274v387q0 105 -12.5 136.5t-69.5 76.5h147q91 0 129 41v-602q0 -149 54 -215q65 -82 192 -82q113 0 181.5 71t68.5 187v387q0 105 -12 137.5t-70 75.5h152q86 0 125 41v-825q0 -104 12 -136
t70 -77zM864 1439q0 -47 -25 -84t-86 -85q-64 -50 -73.5 -61t-9.5 -31q0 -11 10 -47l-127 -13q-10 40 -10 56q0 40 20.5 70t70.5 68q80 61 80 109q0 40 -33.5 66t-83.5 26q-41 0 -197 -68l103 146q62 23 117 23q105 0 174.5 -49.5t69.5 -125.5z" />
    <glyph glyph-name="uni1EE8" unicode="&#x1ee8;" horiz-adv-x="1540" 
d="M1208 1714l-590 -176l472 336zM1336 1233l1 -957q0 -116 9 -155q18 -82 88 -121h-306v150q-153 -185 -428 -185q-170 0 -297 76q-141 84 -186 235q-20 74 -20 242v629q0 119 -9 156q-18 83 -88 120h410q-70 -39 -88 -120q-8 -39 -8 -156v-629q0 -186 75 -276
q101 -119 275 -119q207 0 315 153q41 62 41 168v703q0 117 -8 156q-18 81 -88 120h312v-109q56 28 67 61q6 13 -29 43q-68 58 -29 141q22 46 72 63t99 -6q53 -25 69 -79.5t-12 -113.5q-59 -125 -237 -190z" />
    <glyph glyph-name="uni1EE9" unicode="&#x1ee9;" horiz-adv-x="1206" 
d="M986 1356l-534 -236l405 371zM1043 795v-582q0 -104 12.5 -136t69.5 -77h-268v141q-78 -98 -143.5 -134t-169.5 -36q-223 0 -324 152q-61 92 -61 274v387q0 105 -12.5 136.5t-69.5 76.5h147q90 0 129 41v-602q0 -149 54 -215q65 -82 192 -82q113 0 181.5 71t68.5 187v387
q0 105 -12.5 137.5t-69.5 75.5h152q86 0 124 41v-163q66 29 78 66q6 13 -29 43q-68 58 -29 141q22 46 72 63t99 -6q53 -25 69 -79.5t-12 -113.5q-61 -129 -248 -194z" />
    <glyph glyph-name="uni1EEA" unicode="&#x1eea;" horiz-adv-x="1540" 
d="M930 1538l-590 176l119 160zM1336 1233l1 -957q0 -116 9 -155q18 -82 88 -121h-306v150q-153 -185 -428 -185q-170 0 -297 76q-141 84 -186 235q-20 74 -20 242v629q0 119 -9 156q-18 83 -88 120h410q-70 -39 -88 -120q-8 -39 -8 -156v-629q0 -186 75 -276
q101 -119 275 -119q207 0 315 153q41 62 41 168v703q0 117 -8 156q-18 81 -88 120h312v-109q56 28 67 61q6 13 -29 43q-68 58 -29 141q22 46 72 63t99 -6q53 -25 69 -79.5t-12 -113.5q-59 -125 -237 -190z" />
    <glyph glyph-name="uni1EEB" unicode="&#x1eeb;" horiz-adv-x="1206" 
d="M755 1120l-535 236l131 135zM1043 795v-582q0 -104 12.5 -136t69.5 -77h-268v141q-78 -98 -143.5 -134t-169.5 -36q-223 0 -324 152q-61 92 -61 274v387q0 105 -12.5 136.5t-69.5 76.5h147q90 0 129 41v-602q0 -149 54 -215q65 -82 192 -82q113 0 181.5 71t68.5 187v387
q0 105 -12.5 137.5t-69.5 75.5h152q86 0 124 41v-163q66 29 78 66q6 13 -29 43q-68 58 -29 141q22 46 72 63t99 -6q53 -25 69 -79.5t-12 -113.5q-61 -129 -248 -194z" />
    <glyph glyph-name="uni1EEC" unicode="&#x1eec;" horiz-adv-x="1540" 
d="M1046 1838q0 -47 -24.5 -84t-85.5 -85q-65 -50 -74 -61t-9 -31q0 -11 10 -47l-127 -13q-10 40 -10 56q0 40 20.5 70t70.5 68q80 61 80 109q0 40 -33.5 66t-83.5 26q-41 0 -197 -68l103 146q62 23 117 23q105 0 174 -49.5t69 -125.5zM1336 1233l1 -957q0 -116 9 -155
q18 -82 88 -121h-306v150q-153 -185 -428 -185q-170 0 -297 76q-141 84 -186 235q-20 74 -20 242v629q0 119 -9 156q-18 83 -88 120h410q-70 -39 -88 -120q-8 -39 -8 -156v-629q0 -186 75 -276q101 -119 275 -119q207 0 315 153q41 62 41 168v703q0 117 -8 156
q-18 81 -88 120h312v-109q56 28 67 61q6 13 -29 43q-68 58 -29 141q22 46 72 63t99 -6q53 -25 69 -79.5t-12 -113.5q-59 -125 -237 -190z" />
    <glyph glyph-name="uni1EED" unicode="&#x1eed;" horiz-adv-x="1206" 
d="M863 1439q0 -47 -24.5 -84t-85.5 -85q-65 -50 -74 -61t-9 -31q0 -11 10 -47l-127 -13q-10 40 -10 56q0 40 20.5 70t70.5 68q80 61 80 109q0 40 -33.5 66t-83.5 26q-41 0 -197 -68l103 146q62 23 117 23q105 0 174 -49.5t69 -125.5zM1043 795v-582q0 -104 12.5 -136
t69.5 -77h-268v141q-78 -98 -143.5 -134t-169.5 -36q-223 0 -324 152q-61 92 -61 274v387q0 105 -12.5 136.5t-69.5 76.5h147q90 0 129 41v-602q0 -149 54 -215q65 -82 192 -82q113 0 181.5 71t68.5 187v387q0 105 -12.5 137.5t-69.5 75.5h152q86 0 124 41v-163q66 29 78 66
q6 13 -29 43q-68 58 -29 141q22 46 72 63t99 -6q53 -25 69 -79.5t-12 -113.5q-61 -129 -248 -194z" />
    <glyph glyph-name="uni1EEE" unicode="&#x1eee;" horiz-adv-x="1540" 
d="M1202 1847q-8 -26 -27 -75q-33 -93 -59 -125q-49 -60 -139 -60q-52 0 -160 37q-139 47 -205 47q-51 0 -90 -22q-21 -11 -76 -58q47 131 66 162q43 66 127 66q39 0 131 -27q16 -6 141 -41q57 -16 88 -16q70 0 203 112zM1336 1233l1 -957q0 -116 9 -155q18 -82 88 -121
h-306v150q-153 -185 -428 -185q-170 0 -297 76q-141 84 -186 235q-20 74 -20 242v629q0 119 -9 156q-18 83 -88 120h410q-70 -39 -88 -120q-8 -39 -8 -156v-629q0 -186 75 -276q101 -119 275 -119q207 0 315 153q41 62 41 168v703q0 117 -8 156q-18 81 -88 120h312v-109
q56 28 67 61q6 13 -29 43q-68 58 -29 141q22 46 72 63t99 -6q53 -25 69 -79.5t-12 -113.5q-59 -125 -237 -190z" />
    <glyph glyph-name="uni1EEF" unicode="&#x1eef;" horiz-adv-x="1206" 
d="M944 1434q-49 -242 -194 -242q-55 0 -152 33q-139 47 -182 47q-63 0 -152 -72q35 115 62 152q43 61 108 61q41 0 150 -33q147 -45 172 -45q78 0 188 99zM1043 795v-582q0 -104 12.5 -136t69.5 -77h-268v141q-78 -98 -143.5 -134t-169.5 -36q-223 0 -324 152
q-61 92 -61 274v387q0 105 -12.5 136.5t-69.5 76.5h147q90 0 129 41v-602q0 -149 54 -215q65 -82 192 -82q113 0 181.5 71t68.5 187v387q0 105 -12.5 137.5t-69.5 75.5h152q86 0 124 41v-163q66 29 78 66q6 13 -29 43q-68 58 -29 141q22 46 72 63t99 -6q53 -25 69 -79.5
t-12 -113.5q-61 -129 -248 -194z" />
    <glyph glyph-name="uni1EF0" unicode="&#x1ef0;" horiz-adv-x="1540" 
d="M916 -294q0 -53 -38 -92t-91 -39q-56 0 -94 38t-38 93q0 53 39 91t95 38q51 0 89 -38t38 -91zM1336 1233l1 -957q0 -116 9 -155q18 -82 88 -121h-306v150q-153 -185 -428 -185q-170 0 -297 76q-141 84 -186 235q-20 74 -20 242v629q0 119 -9 156q-18 83 -88 120h410
q-70 -39 -88 -120q-8 -39 -8 -156v-629q0 -186 75 -276q101 -119 275 -119q207 0 315 153q41 62 41 168v703q0 117 -8 156q-18 81 -88 120h312v-109q56 28 67 61q6 13 -29 43q-68 58 -29 141q22 46 72 63t99 -6q53 -25 69 -79.5t-12 -113.5q-59 -125 -237 -190z" />
    <glyph glyph-name="uni1EF1" unicode="&#x1ef1;" horiz-adv-x="1206" 
d="M775 -294q0 -53 -38 -92t-91 -39q-55 0 -93 38t-38 93q0 53 39 91t94 38q51 0 89 -38t38 -91zM1043 795v-582q0 -104 12.5 -136t69.5 -77h-268v141q-78 -98 -143.5 -134t-169.5 -36q-223 0 -324 152q-61 92 -61 274v387q0 105 -12.5 136.5t-69.5 76.5h147q90 0 129 41
v-602q0 -149 54 -215q65 -82 192 -82q113 0 181.5 71t68.5 187v387q0 105 -12.5 137.5t-69.5 75.5h152q86 0 124 41v-163q66 29 78 66q6 13 -29 43q-68 58 -29 141q22 46 72 63t99 -6q53 -25 69 -79.5t-12 -113.5q-61 -129 -248 -194z" />
    <glyph glyph-name="Ygrave" unicode="&#x1ef2;" horiz-adv-x="1306" 
d="M1299 1423l-531 -800v-369q0 -98 17 -141q20 -52 92 -113h-418q68 47 84 123q8 35 8 153v347l-372 600q-56 88 -90.5 123.5t-102.5 76.5l246 9q49 0 67.5 -14.5t63.5 -88.5l325 -532l273 413q41 62 41 105q0 65 -78 108h375zM867 1538l-590 176l119 160z" />
    <glyph glyph-name="ygrave" unicode="&#x1ef3;" horiz-adv-x="1148" 
d="M1139 997l-461 -1099q-72 -170 -166 -246q-119 -94 -293 -94q-110 0 -262 55l195 141q61 -39 122 -39q166 0 254 248l21 57q-70 70 -111 160l-286 625q-41 90 -74 129t-88 63l209 9q45 2 64.5 -3.5t45.5 -66.5l330 -743l227 575q33 84 33 131q0 55 -63 98h303z" />
    <glyph glyph-name="uni1EF4" unicode="&#x1ef4;" horiz-adv-x="1306" 
d="M1299 1423l-531 -800v-369q0 -98 17 -141q20 -52 92 -113h-418q68 47 84 123q8 35 8 153v347l-372 600q-56 88 -90.5 123.5t-102.5 76.5l246 9q49 0 67.5 -14.5t63.5 -88.5l325 -532l273 413q41 62 41 105q0 65 -78 108h375zM798 -294q0 -53 -38 -92t-91 -39
q-55 0 -93 38t-38 93q0 53 39 91t94 38q51 0 89 -38t38 -91z" />
    <glyph glyph-name="uni1EF5" unicode="&#x1ef5;" horiz-adv-x="1148" 
d="M1139 997l-461 -1099q-72 -170 -166 -246q-119 -94 -293 -94q-110 0 -262 55l195 141q61 -39 122 -39q166 0 254 248l21 57q-70 70 -111 160l-286 625q-41 90 -74 129t-88 63l209 9q45 2 64.5 -3.5t45.5 -66.5l330 -743l227 575q33 84 33 131q0 55 -63 98h303zM923 -294
q0 -53 -38 -92t-91 -39q-55 0 -93 38t-38 93q0 53 39 91t94 38q51 0 89 -38t38 -91z" />
    <glyph glyph-name="uni1EF6" unicode="&#x1ef6;" horiz-adv-x="1306" 
d="M1299 1423l-531 -800v-369q0 -98 17 -141q20 -52 92 -113h-418q68 47 84 123q8 35 8 153v347l-372 600q-56 88 -90.5 123.5t-102.5 76.5l246 9q49 0 67.5 -14.5t63.5 -88.5l325 -532l273 413q41 62 41 105q0 65 -78 108h375zM947 1838q0 -47 -25 -84t-86 -85
q-64 -50 -73.5 -61t-9.5 -31q0 -11 10 -47l-127 -13q-9 40 -9 56q0 40 20 70t70 68q81 61 81 109q0 40 -34 66t-83 26q-42 0 -198 -68l103 146q62 23 117 23q106 0 175 -49.5t69 -125.5z" />
    <glyph glyph-name="uni1EF7" unicode="&#x1ef7;" horiz-adv-x="1148" 
d="M1139 997l-461 -1099q-72 -170 -166 -246q-119 -94 -293 -94q-110 0 -262 55l195 141q61 -39 122 -39q166 0 254 248l21 57q-70 70 -111 160l-286 625q-41 90 -74 129t-88 63l209 9q45 2 64.5 -3.5t45.5 -66.5l330 -743l227 575q33 84 33 131q0 55 -63 98h303zM864 1439
q0 -47 -24.5 -84t-85.5 -85q-65 -50 -74 -61t-9 -31q0 -11 10 -47l-127 -13q-10 40 -10 56q0 40 20.5 70t70.5 68q80 61 80 109q0 40 -33.5 66t-83.5 26q-41 0 -197 -68l103 146q62 23 117 23q105 0 174 -49.5t69 -125.5z" />
    <glyph glyph-name="uni1EF8" unicode="&#x1ef8;" horiz-adv-x="1306" 
d="M1299 1423l-531 -800v-369q0 -98 17 -141q20 -52 92 -113h-418q68 47 84 123q8 35 8 153v347l-372 600q-56 88 -90.5 123.5t-102.5 76.5l246 9q49 0 67.5 -14.5t63.5 -88.5l325 -532l273 413q41 62 41 105q0 65 -78 108h375zM1094 1847q-8 -26 -26 -75q-33 -93 -60 -125
q-49 -60 -139 -60q-51 0 -160 37q-139 47 -205 47q-51 0 -90 -22q-20 -11 -76 -58q48 131 66 162q43 66 127 66q39 0 131 -27q16 -6 141 -41q58 -16 88 -16q70 0 203 112z" />
    <glyph glyph-name="uni1EF9" unicode="&#x1ef9;" horiz-adv-x="1148" 
d="M1139 997l-461 -1099q-72 -170 -166 -246q-119 -94 -293 -94q-110 0 -262 55l195 141q61 -39 122 -39q166 0 254 248l21 57q-70 70 -111 160l-286 625q-41 90 -74 129t-88 63l209 9q45 2 64.5 -3.5t45.5 -66.5l330 -743l227 575q33 84 33 131q0 55 -63 98h303zM945 1434
q-49 -242 -194 -242q-55 0 -152 33q-139 47 -182 47q-63 0 -152 -72q35 115 62 152q43 61 108 61q41 0 150 -33q147 -45 172 -45q78 0 188 99z" />
    <glyph glyph-name="quoteleft" unicode="&#x2018;" horiz-adv-x="489" 
d="M391 1159q0 -51 -37 -87t-88 -36q-57 0 -97 41t-40 101q0 106 121 256q41 51 61 51q6 0 23 -4l47 -13q-121 -137 -121 -178q0 -16 25 -20q106 -17 106 -111z" />
    <glyph glyph-name="quoteright" unicode="&#x2019;" horiz-adv-x="489" 
d="M364 1313q0 -111 -121 -256q-43 -51 -63 -51q-4 0 -21 4l-49 12q125 137 125 176q0 16 -24 23q-111 16 -111 112q0 51 37 86t90 35q57 0 97 -41t40 -100z" />
    <glyph glyph-name="quotedblleft" unicode="&#x201c;" horiz-adv-x="845" 
d="M747 1159q0 -51 -36.5 -87t-87.5 -36q-58 0 -99 41t-41 101q0 112 140 278q22 27 51 27q10 0 14 -2l49 -13q-123 -133 -123 -176q0 -18 25 -22q108 -17 108 -111zM391 1159q0 -51 -37 -87t-88 -36q-57 0 -97 41t-40 101q0 104 84 211q55 69 68.5 81.5t35.5 12.5
q13 0 17 -2l47 -13q-121 -137 -121 -178q0 -16 25 -20q106 -17 106 -111z" />
    <glyph glyph-name="quotedblright" unicode="&#x201d;" horiz-adv-x="845" 
d="M718 1313q0 -115 -139 -279q-22 -26 -49 -26q-12 0 -16 2l-47 12q122 133 122 176q0 16 -24 23q-109 16 -109 112q0 51 36 86t89 35q58 0 97.5 -41t39.5 -100zM362 1311q0 -109 -139 -277q-23 -26 -49 -26q-11 0 -15 2l-49 12q123 135 123 176q0 16 -24 23
q-109 16 -109 112q0 51 36 86t89 35q57 0 97 -42t40 -101z" />
    <glyph glyph-name="ellipsis" unicode="&#x2026;" horiz-adv-x="1576" 
d="M1448 117q0 -58 -39 -96.5t-94 -38.5q-58 0 -96.5 38.5t-38.5 96.5q0 55 39.5 94t97.5 39q53 0 92 -40t39 -93zM924 117q0 -58 -39 -96.5t-94 -38.5q-58 0 -97 38.5t-39 96.5q0 55 40 94t98 39q53 0 92 -40t39 -93zM397 117q0 -58 -39 -96.5t-94 -38.5q-57 0 -96 38.5
t-39 96.5q0 55 40 94t97 39q53 0 92 -40t39 -93z" />
    <glyph glyph-name="ugrave" horiz-adv-x="587" 
 />
    <glyph glyph-name="uacute" horiz-adv-x="585" 
 />
    <glyph glyph-name="yacute" horiz-adv-x="634" 
 />
  </font>
</defs>
</svg>
